<?xml version="1.0" standalone="no"?>
<!DOCTYPE svg PUBLIC "-//W3C//DTD SVG 1.1//EN" "http://www.w3.org/Graphics/SVG/1.1/DTD/svg11.dtd" >
<!--
2013-9-30: Created.
-->
<svg>
<metadata>
Created by iconfont
</metadata>
<defs>

<font id="iconfont" horiz-adv-x="1024" >
  <font-face
    font-family="iconfont"
    font-weight="500"
    font-stretch="normal"
    units-per-em="1024"
    ascent="896"
    descent="-128"
  />
    <missing-glyph />
    
    <glyph glyph-name="x" unicode="x" horiz-adv-x="1001"
d="M281 543q-27 -1 -53 -1h-83q-18 0 -36.5 -6t-32.5 -18.5t-23 -32t-9 -45.5v-76h912v41q0 16 -0.5 30t-0.5 18q0 13 -5 29t-17 29.5t-31.5 22.5t-49.5 9h-133v-97h-438v97zM955 310v-52q0 -23 0.5 -52t0.5 -58t-10.5 -47.5t-26 -30t-33 -16t-31.5 -4.5q-14 -1 -29.5 -0.5
t-29.5 0.5h-32l-45 128h-439l-44 -128h-29h-34q-20 0 -45 1q-25 0 -41 9.5t-25.5 23t-13.5 29.5t-4 30v167h911zM163 247q-12 0 -21 -8.5t-9 -21.5t9 -21.5t21 -8.5q13 0 22 8.5t9 21.5t-9 21.5t-22 8.5zM316 123q-8 -26 -14 -48q-5 -19 -10.5 -37t-7.5 -25t-3 -15t1 -14.5
t9.5 -10.5t21.5 -4h37h67h81h80h64h36q23 0 34 12t2 38q-5 13 -9.5 30.5t-9.5 34.5q-5 19 -11 39h-368zM336 498v228q0 11 2.5 23t10 21.5t20.5 15.5t34 6h188q31 0 51.5 -14.5t20.5 -52.5v-227h-327z" />
    

    
    <glyph glyph-name="iconupload" unicode="&#59010;" d="M949.062775 263.884454c-4.943592 7.267521-80.839143 116.950595-196.152449 197.754946l55.69037 64.056921c12.149714 13.981433 10.67513 35.148521-3.304256 47.295166-13.94971 12.163017-35.098379 10.722202-47.311539-3.290953l-63.124689-72.586179c-45.808302 24.62177-95.998401 42.563398-149.334143 48.095391l0 75.142397c0 18.514679-14.993482 33.526581-33.527604 33.526581s-33.526581-15.011902-33.526581-33.526581l0-75.142397c-53.336766-5.531993-103.525841-23.474644-149.334143-48.095391l-63.125713 72.586179c-12.213159 14.013155-33.362852 15.45397-47.311539 3.290953-13.979386-12.146645-15.45397-33.313733-3.304256-47.295166l55.69037-64.056921C155.775344 380.83505 79.879794 271.150952 74.936201 263.884454c-7.757684-11.380188-7.757684-26.361391 0-37.751812 7.890714-11.57564 195.990766-283.687084 437.063287-283.687084s429.17155 272.111444 437.063287 283.687084C956.819436 237.523063 956.819436 252.504266 949.062775 263.884454zM511.999488 9.500766c-172.054611 0-322.372152 176.589904-367.715873 235.524155 45.280276 58.96495 195.268312 235.424894 367.715873 235.424894 172.023912 0 322.304613-176.490643 367.715873-235.44536C834.304102 186.041552 684.0234 9.500766 511.999488 9.500766zM511.999488 437.264247c-107.424638 0-194.811918-87.370907-194.811918-194.777125 0-107.441011 87.387279-194.841593 194.811918-194.841593 107.425661 0 194.811918 87.400582 194.811918 194.841593C706.811406 349.89334 619.424126 437.264247 511.999488 437.264247zM511.999488 114.69869c-70.458725 0-127.757732 57.328683-127.757732 127.788431 0 70.425979 57.299007 127.72294 127.757732 127.72294s127.758756-57.296961 127.758756-127.72294C639.757221 172.027373 582.458213 114.69869 511.999488 114.69869zM493.631142 339.008432c-43.1211 0-78.18571-35.082006-78.18571-78.18571 0-18.516726 14.996552-33.527604 33.526581-33.527604 18.533099 0 33.527604 15.010879 33.527604 33.527604 0 6.137791 5.010107 11.131525 11.131525 11.131525 18.533099 0 33.527604 15.010879 33.527604 33.527604C527.157723 323.994484 512.164241 339.008432 493.631142 339.008432z"  horiz-adv-x="1024" />

    
    <glyph glyph-name="wen" unicode="&#59261;" d="M768.000753 784.285901c-221.079805 0-400.285901-179.175992-400.285901-400.285901s179.206096-400.285901 400.285901-400.285901 400.285901 179.206096 400.285901 400.285901S989.110962 784.285901 768.000753 784.285901zM768.000753 39.014079c-190.4947 0-344.985921 154.491221-344.985921 344.985921s154.49092 344.985921 344.985921 344.985921 344.985921-154.49092 344.985921-344.985921S958.495452 39.014079 768.000753 39.014079zM734.70631 219.815673l60.899277 0 0-64.090274-60.899277 0L734.70631 219.815673zM904.94149 489.151482c0-16.79789-3.190997-31.879566-9.693105-45.486459-6.502409-13.606893-20.320029-30.615209-41.512765-50.905134-21.072622-20.289925-35.190978-34.79963-42.084736-43.288886-6.923862-8.609671-12.101706-18.784738-15.713854-30.795831-3.582346-11.89098-5.087533-27.875768-4.696184-47.984769l-55.209668 0c0 23.39031 1.866432 42.205151 5.689608 56.203092 3.823176 13.998242 9.422473 26.310373 17.008617 36.696166 7.495833 10.506207 21.102726 25.798609 40.790275 46.208949 19.687549 20.319728 32.301019 35.100667 37.990627 44.312413 5.689608 9.181643 8.489256 22.878546 8.489256 41.091313 0 18.212766-6.502409 34.31797-19.507228 48.406523-13.004818 13.998242-31.819359 21.012114-56.50413 21.012114-55.721432 0-83.506889-33.083716-83.506889-99.190941l-55.390592 0c0.782697 30.043238 4.395147 53.012095 10.68683 68.696147 6.291683 15.684052 16.315929 29.681993 30.103445 42.084736 13.817318 12.312432 29.200333 21.493774 46.208949 27.303797 17.008617 5.900334 34.889941 8.790294 53.704481 8.790294 38.111042 0 69.809985-11.198293 95.096831-33.59548C892.207605 556.312338 904.911386 526.50993 904.94149 489.151482z"  horiz-adv-x="1537" />

    
    <glyph glyph-name="shouzhiliushuizhang" unicode="&#59057;" d="M715.902374-110.731989C557.204259-110.731989 428.553702 17.91857 428.553702 176.616681 428.553702 335.314797 557.205361 463.965356 715.902374 463.965356 874.599387 463.965356 1003.251044 335.314797 1003.251044 176.616681 1003.251044 17.91857 874.600489-110.731989 715.902374-110.731989L715.902374-110.731989ZM715.902374 392.123511C596.879888 392.123511 500.391145 295.639167 500.391145 176.614482 500.391145 57.594196 596.879888-38.896746 715.902374-38.896746 834.927059-38.896746 931.413602 57.595298 931.413602 176.614482 931.413602 295.639167 834.927059 392.123511 715.902374 392.123511L715.902374 392.123511ZM811.68563 104.779239 663.191204 104.779239 691.033154 57.826427C693.782458 53.188485 687.206359 44.481618 676.346712 38.377673 665.489265 32.271528 654.455722 31.081779 651.706417 35.719717 651.706417 35.719717 596.174402 119.645082 596.174402 128.725053 596.174402 129.57252 596.569518 130.289013 596.655366 131.11226 596.714799 131.802341 596.803949 132.470407 597.083501 133.22872 599.254991 144.217137 608.49125 152.66977 620.119118 152.66977L626.093187 152.66977C627.973018 152.932811 629.551284 152.863474 631.038198 152.66977L811.684532 152.66977C824.909373 152.66977 835.630346 141.948797 835.630346 128.723956 835.631444 115.500212 824.910471 104.779239 811.68563 104.779239L811.68563 104.779239ZM834.721247 220.003545C832.549757 209.015128 823.313498 200.562495 811.68563 200.562495L805.711561 200.562495C803.83173 200.299454 802.253464 200.368792 800.76655 200.562495L620.120216 200.562495C606.895374 200.562495 596.174402 211.283468 596.174402 224.508314 596.174402 237.733155 606.895374 248.454128 620.120216 248.454128L768.614642 248.454128 740.772696 295.40694C738.023387 300.044882 744.599491 308.751749 755.459138 314.855694 766.316585 320.961835 777.350128 322.151588 780.099432 317.513646 780.099432 317.513646 835.631444 233.588285 835.631444 224.508314 835.631444 223.660847 835.236327 222.944354 835.150483 222.121103 835.089949 221.431026 835.001901 220.76296 834.721247 220.003545L834.721247 220.003545ZM691.95656 655.530769C705.181401 655.530769 715.902374 644.809797 715.902374 631.584954 715.902374 618.360112 705.181401 607.63914 691.95656 607.63914L572.228588 607.63914C559.003746 607.63914 548.282774 618.360112 548.282774 631.584954 548.282774 644.809797 559.003746 655.530769 572.228588 655.530769L691.95656 655.530769 691.95656 655.530769ZM213.042474 224.508314 332.771546 224.508314C345.996388 224.508314 356.71736 213.787341 356.71736 200.562495 356.71736 187.337654 345.996388 176.616681 332.771546 176.616681L213.042474 176.616681C199.817632 176.616681 189.09666 187.337654 189.09666 200.562495 189.09666 213.787341 199.817632 224.508314 213.042474 224.508314L213.042474 224.508314ZM452.499517 487.911168C465.724359 487.911168 476.445331 477.190197 476.445331 463.965356 476.445331 450.740511 465.724359 440.019538 452.499517 440.019538L356.716259 440.019538 356.716259 344.236282C356.716259 331.011441 345.995287 320.290468 332.770444 320.290468 319.545602 320.290468 308.82463 331.011441 308.82463 344.236282L308.82463 440.019538 213.041373 440.019538C199.81653 440.019538 189.095558 450.740511 189.095558 463.965356 189.095558 477.190197 199.81653 487.911168 213.041373 487.911168L308.82463 487.911168 308.82463 583.694426 213.041373 583.694426C199.81653 583.694426 189.095558 594.415398 189.095558 607.64024 189.095558 620.865083 199.81653 631.586055 213.041373 631.586055L236.987187 631.586055 236.987187 679.477683C236.987187 692.702526 247.708159 703.423497 260.933002 703.423497 274.157844 703.423497 284.878816 692.702526 284.878816 679.477683L284.878816 631.586055 380.662073 631.586055 380.662073 679.477683C380.662073 692.702526 391.383045 703.423497 404.607888 703.423497 417.83273 703.423497 428.553702 692.702526 428.553702 679.477683L428.553702 631.586055 452.499517 631.586055C465.724359 631.586055 476.445331 620.865083 476.445331 607.64024 476.445331 594.415398 465.724359 583.694426 452.499517 583.694426L356.716259 583.694426 356.716259 487.911168 452.499517 487.911168 452.499517 487.911168ZM811.68563 775.258739C811.68563 801.709525 790.244786 823.150368 763.794002 823.150368L141.205031 823.150368C114.754245 823.150368 93.313402 801.709525 93.313402 775.258739L93.313402 80.833425C93.313402 54.382641 114.754245 32.941797 141.205031 32.941797L413.357681 32.941797C425.689935 7.025906 441.008124-17.164243 459.275928-38.895645L117.260317-38.895645C64.362046-38.895645 21.47706 3.988242 21.47706 56.887611L21.47706 799.204554C21.47706 852.102824 64.360946 894.987811 117.260317 894.987811L787.739816 894.987811C840.638087 894.987811 883.523072 852.103925 883.523072 799.204554L883.523072 466.642018C861.061972 479.654445 837.056725 490.23344 811.68563 497.787978L811.68563 775.258739 811.68563 775.258739Z"  horiz-adv-x="1024" />

    
    <glyph glyph-name="touxiang" unicode="&#58909;" d="M614.047971 333.750878 409.953053 333.750878c-191.061243 0-346.511034-153.064021-346.511034-341.257221l0-20.077327c0-100.415306 152.922718-100.415306 346.511034-100.415306l204.095942 0c185.892417 0 346.482364 0 346.511034 100.415306l0 20.077327C960.560029 180.657163 805.080544 333.750878 614.047971 333.750878zM900.693592-29.487166c0-4.815569-7.316019-21.148364-101.439241-29.154515-59.857221-5.092031-131.23986-5.092031-183.360224-5.092031L408.078227-63.733713c-62.848137 0-134.083329 0-191.279341 5.088959-84.409146 7.510567-93.521148 22.892126-93.521148 29.157587l0 20.445944c0 154.111507 127.761551 279.49036 284.801514 279.49036l207.8159 0c157.038939 0 284.80049-125.378853 284.80049-279.49036L900.69564-29.487166zM501.790851 896c-151.701163 0-275.034193-121.570837-275.034193-271.029581 0-149.45772 123.33303-271.058251 275.034193-271.058251 151.644846 0 275.034193 121.598483 275.034193 271.058251C776.825044 774.429163 653.493038 896 501.790851 896zM501.791875 418.150808c-116.733766 0-211.704807 93.148436-211.704807 207.643878 0 114.47906 94.970017 207.614184 211.703783 207.614184 116.73479 0 211.705831-93.135124 211.705831-207.614184C713.496682 511.299244 618.526665 418.150808 501.791875 418.150808z"  horiz-adv-x="1024" />

    
    <glyph glyph-name="jian" unicode="&#58969;" d="M431.114297 180.747853M808.718377 768.763131 215.2806 768.763131c-48.060599 0-87.021959-38.960337-87.021959-87.020936l0-595.48439c0-48.060599 38.960337-87.020936 87.021959-87.020936l593.436754 0c48.060599 0 87.020936 38.960337 87.020936 87.020936L895.738289 681.742195C895.739313 729.802794 856.778976 768.763131 808.718377 768.763131zM831.923892 86.257805c0-12.795421-10.410094-23.205515-23.205515-23.205515L215.2806 63.052291c-12.795421 0-23.205515 10.410094-23.205515 23.205515L192.075085 681.742195c0 12.795421 10.410094 23.205515 23.205515 23.205515l593.436754 0c12.795421 0 23.205515-10.410094 23.205515-23.205515L831.922868 86.257805zM562.691007 639.661797 410.60417 604.151026 352.673783 334.286762 504.753457 355.594043 475.785705 128.338203 671.325194 476.319615 483.02355 447.915705Z"  horiz-adv-x="1024" />

    
    <glyph glyph-name="jian1" unicode="&#58970;" d="M431.114297 180.747853M808.718377 768.763131 215.2806 768.763131c-48.060599 0-87.021959-38.960337-87.021959-87.020936l0-595.48439c0-48.060599 38.960337-87.020936 87.021959-87.020936l593.436754 0c48.060599 0 87.020936 38.960337 87.020936 87.020936L895.738289 681.742195C895.739313 729.802794 856.778976 768.763131 808.718377 768.763131zM831.923892 86.257805c0-12.795421-10.410094-23.205515-23.205515-23.205515L215.2806 63.052291c-12.795421 0-23.205515 10.410094-23.205515 23.205515L192.075085 681.742195c0 12.795421 10.410094 23.205515 23.205515 23.205515l593.436754 0c12.795421 0 23.205515-10.410094 23.205515-23.205515L831.922868 86.257805zM506.611781 634.959705c-23.445992-188.984189-143.308917-227.916896-143.308917-359.245967 0-81.156368 68.069305-146.9437 148.71095-146.9437 80.611969 0 148.682297 65.787332 148.682297 146.9437 0 131.330094-119.863948 170.259732-143.30994 359.245967C516.677021 640.653381 507.319909 640.653381 506.611781 634.959705zM542.714024 193.807287c20.999266 0 38.077224 17.014512 38.077224 37.96773 0 8.42488 6.817266 15.243169 15.246239 15.243169 6.317892 0 11.736299-3.810792 14.054087-9.261944 0.785899-1.831718 1.220804-3.857864 1.220804-5.981225-0.002047-37.756929-30.78105-68.455091-68.599378-68.455091-8.444323 0-15.245216 6.819313-15.245216 15.245216C527.467785 186.988997 534.30347 193.807287 542.714024 193.807287z"  horiz-adv-x="1024" />

    
    <glyph glyph-name="gengduo1" unicode="&#58882;" d="M512-63.466667c-60.3936 0-118.997333 11.835733-174.183467 35.1776-53.287467 22.538667-101.1392 54.797867-142.222933 95.882667-41.0848 41.083733-73.344 88.9344-95.883733 142.222933C76.369067 265.000533 64.533333 323.605333 64.533333 384c0 60.3936 11.835733 118.997333 35.1776 174.183467 22.539733 53.288533 54.798933 101.138133 95.883733 142.222933 41.083733 41.083733 88.935467 73.344 142.222933 95.882667C393.002667 819.630933 451.607467 831.466667 512 831.466667s118.997333-11.835733 174.183467-35.1776c53.287467-22.538667 101.138133-54.798933 142.222933-95.882667 41.0848-41.0848 73.344-88.9344 95.883733-142.222933C947.630933 502.997333 959.466667 444.3936 959.466667 384c0-60.394667-11.835733-118.999467-35.1776-174.184533-22.539733-53.288533-54.798933-101.1392-95.883733-142.222933-41.0848-41.0848-88.935467-73.344-142.222933-95.882667C630.997333-51.630933 572.3936-63.466667 512-63.466667zM512 767.466667c-211.444267 0-383.466667-172.0224-383.466667-383.466667 0-211.444267 172.0224-383.466667 383.466667-383.466667S895.466667 172.555733 895.466667 384C895.466667 595.444267 723.444267 767.466667 512 767.466667zM512 388.8m-64 0a60 60 0 1 0 128 0 60 60 0 1 0-128 0ZM320 388.8m-64 0a60 60 0 1 0 128 0 60 60 0 1 0-128 0ZM704 388.8m-64 0a60 60 0 1 0 128 0 60 60 0 1 0-128 0Z"  horiz-adv-x="1024" />

    
    <glyph glyph-name="edit" unicode="&#58888;" d="M839.912-63.355h-656.553c-65.93 0-119.381 53.435-119.381 119.38v656.553c0 65.928 53.451 119.381 119.381 119.381h432.723c8.24 0 14.933-6.676 14.933-14.916v-29.844c0-8.256-6.693-14.932-14.933-14.932l-402.88 0c-49.45 0-89.535-40.084-89.535-89.533v-596.865c0-49.45 40.085-89.535 89.535-89.535h596.865c49.45 0 89.533 40.085 89.533 89.535l-0 402.88c0 8.24 6.692 14.932 14.932 14.932h29.847c8.237 0 14.913-6.693 14.913-14.932v-432.724c-0.001-65.945-53.451-119.38-119.38-119.38zM892.52 647.055l-124.036 117.092 37.664 37.815c29.123 29.223 77.008 29.997 106.987 1.699l15.502-14.627c29.964-28.3 30.654-74.941 1.534-104.181l-37.651-37.798zM301.541 295.256l124.021-117.095-182.517-62.447 58.496 179.542zM862.39 616.79l-406.714-408.379-124.021 117.094 406.715 408.376 124.020-117.091z"  horiz-adv-x="1024" />

    
    <glyph glyph-name="baobiao-copy" unicode="&#58881;" d="M879.503-27.159h-747.201c-51.568 0-93.367 54.306-93.367 121.248v557.506h57.619c-0.353-210.593-1.59-484.863-1.59-484.863 0-66.812 16.305-121.027 67.916-121.027h686.179c51.611 0 67.916 54.261 67.916 121.027 0 0-1.194 280.454-1.59 484.863h57.619v-557.506c-0.044-66.942-41.845-121.248-93.499-121.248v0zM38.891 780.18c0 41.359 41.801 74.853 93.367 74.853h747.245c51.654 0 93.411-33.494 93.411-74.853v-164.729h-934.022v164.729zM256.069 454.434c0-17.807-14.404-32.211-32.211-32.211s-32.211 14.404-32.211 32.211 14.404 32.211 32.211 32.211 32.211-14.404 32.211-32.211zM824.048 429.555h-477.749v47.854h477.749v-47.854zM256.069 332.919c0-17.764-14.404-32.211-32.211-32.211s-32.211 14.404-32.211 32.211c0 17.807 14.404 32.211 32.211 32.211s32.211-14.404 32.211-32.211zM824.048 308.043h-477.749v47.9h477.749v-47.9zM256.069 219.668c0-17.764-14.404-32.211-32.211-32.211s-32.211 14.45-32.211 32.211c0 17.807 14.404 32.211 32.211 32.211s32.211-14.361 32.211-32.211zM824.048 194.835h-477.749v47.9h477.749v-47.9z"  horiz-adv-x="1024" />

    
    <glyph glyph-name="touxiang1" unicode="&#59089;" d="M501.937582 350.902947c147.891962 0 268.231366 118.534055 268.223274 264.288929 0 145.746783-120.330301 264.28994-268.222263 264.28994-147.890951 0-268.221252-118.584625-268.221252-264.28994C233.71633 469.479481 354.046631 350.902947 501.937582 350.902947zM612.471463 325.453089 411.497184 325.453089c-186.760063 0-338.664249-149.569875-338.664249-333.472733l0-19.794109c0-96.139636 149.47278-96.139636 338.664249-96.139636l200.974278 0c181.747565 0 338.694591 0 338.694591 96.139636l0 19.794109C951.164031 175.841748 799.235571 325.453089 612.471463 325.453089z"  horiz-adv-x="1024" />

    
    <glyph glyph-name="wu" unicode="&#58886;" d="M512 882.481c-272.869 0-493.148-220.28-493.148-493.148s220.28-493.148 493.148-493.148 493.148 220.28 493.148 493.148-220.28 493.148-493.148 493.148zM509.023-21.458c-228.714 0-413.272 184.558-413.272 413.272s184.559 413.272 413.272 413.272 413.272-184.559 413.272-413.272c2.977-225.737-184.062-413.272-413.272-413.272zM768.497 417.612c-7.938 7.938-19.349 11.907-31.256 11.907h-450.481c-11.907 0-23.318-3.969-31.256-11.907-15.38-15.38-15.38-42.667-1.985-56.558 9.923-9.923 19.349-11.907 31.256-11.907h454.45c11.907 0 21.333 1.984 31.256 11.907 13.395 13.891 13.395 41.178-1.985 56.558z"  horiz-adv-x="1024" />

    
    <glyph glyph-name="piaoquan" unicode="&#58889;" d="M248.888889 42.666667h-170.666667A21.333333 21.333333 0 0 0 56.888889 64V298.666667a21.333333 21.333333 0 1 0 42.666667 0v-213.333334h128V668.444444H99.555556v-213.333333a21.333333 21.333333 0 1 0-42.666667 0V689.777778A21.333333 21.333333 0 0 0 78.222222 711.111111h170.666667a21.333333 21.333333 0 0 0 21.333333-21.333333v-625.777778a21.333333 21.333333 0 0 0-21.333333-21.333333zM78.222222 277.333333a21.333333 21.333333 0 1 0 0 42.666667c31.374222 0 56.888889 25.528889 56.888889 56.888889s-25.514667 56.888889-56.888889 56.888889a21.333333 21.333333 0 1 0 0 42.666666c54.897778 0 99.555556-44.672 99.555556-99.555555s-44.657778-99.555556-99.555556-99.555556zM952.888889 458.339556V682.666667H341.333333v-611.555556h611.555556V319.672889s-56.888889 23.111111-56.888889 72.888889 56.888889 65.777778 56.888889 65.777778z m-193.322667 41.984L686.407111 426.666667h39.580445c15.047111 0 27.790222-5.148444 27.790222-17.109334v-2.887111c0-11.975111-12.743111-22.670222-27.790222-22.670222H668.444444v-42.666667h57.543112c15.047111 0 27.790222-5.148444 27.790222-17.109333v-2.887111c0-11.975111-12.743111-22.670222-27.790222-22.670222H668.444444v-57.671111C668.444444 226.275556 662.300444 213.333333 650.339556 213.333333h-2.887112C635.477333 213.333333 625.777778 226.275556 625.777778 240.995556V298.666667h-63.402667C547.313778 298.666667 540.444444 309.361778 540.444444 321.336889v2.887111c0 11.960889 6.869333 17.109333 21.930667 17.109333H625.777778v42.666667h-63.402667C547.313778 384 540.444444 394.695111 540.444444 406.670222v2.887111c0 11.960889 6.869333 17.109333 21.930667 17.109334h46.037333l-71.722666 72.220444c-8.590222 8.576-8.661333 22.883556-0.213334 31.345778l2.062223 2.048c8.462222 8.462222 19.754667 5.859556 28.316444-2.716445l80.554667-80.568888 81.976889 81.976888a21.816889 21.816889 0 0 0 30.848 0.213334l2.048-2.062222c8.462222-8.448 5.859556-20.238222-2.716445-28.8zM960 42.666667h-611.555556a21.333333 21.333333 0 0 0-21.333333 21.333333v625.777778a21.333333 21.333333 0 0 0 21.333333 21.333333h611.555556a21.333333 21.333333 0 0 0 21.333333-21.333333V455.111111a21.333333 21.333333 0 0 0-42.666666 0V668.444444H369.777778v-583.111111h568.888889V298.666667a21.333333 21.333333 0 0 0 42.666666 0v-234.666667a21.333333 21.333333 0 0 0-21.333333-21.333333zM960 277.333333c-54.883556 0-99.555556 44.672-99.555556 99.555556s44.672 99.555556 99.555556 99.555555a21.333333 21.333333 0 1 0 0-42.666666c-31.36 0-56.888889-25.528889-56.888889-56.888889s25.528889-56.888889 56.888889-56.888889a21.333333 21.333333 0 0 0 0-42.666667z"  horiz-adv-x="1024" />

    
    <glyph glyph-name="youhuiquan" unicode="&#58899;" d="M967.111111 56.888889H426.666667V711.111111h540.444444v-220.444444s-113.777778-31.587556-113.777778-118.499556C853.333333 285.226667 967.111111 270.222222 967.111111 270.222222v-213.333333zM448 35.555556A21.333333 21.333333 0 0 0 426.666667 56.888889v71.111111a21.333333 21.333333 0 1 0 42.666666 0v-71.111111a21.333333 21.333333 0 0 0-21.333333-21.333333z m0 184.888888A21.333333 21.333333 0 0 0 426.666667 241.777778v71.111111a21.333333 21.333333 0 1 0 42.666666 0v-71.111111a21.333333 21.333333 0 0 0-21.333333-21.333334z m0 184.888889A21.333333 21.333333 0 0 0 426.666667 426.666667v71.111111a21.333333 21.333333 0 1 0 42.666666 0v-71.111111a21.333333 21.333333 0 0 0-21.333333-21.333334z m0 184.888889A21.333333 21.333333 0 0 0 426.666667 611.555556v71.111111a21.333333 21.333333 0 1 0 42.666666 0v-71.111111a21.333333 21.333333 0 0 0-21.333333-21.333334zM967.111111 704a21.333333 21.333333 0 0 1-21.333333 21.333333h-867.555556A21.333333 21.333333 0 0 1 56.888889 704V483.555556c0-0.810667 0.156444-1.578667 0.241778-2.375112-0.085333-0.796444-0.241778-1.564444-0.241778-2.375111a21.333333 21.333333 0 0 1 21.333333-21.333333c44.444444 0 80.597333-36.152889 80.597334-80.583111S122.666667 296.305778 78.222222 296.305778a21.333333 21.333333 0 0 1-21.333333-21.333334c0-0.824889 0.156444-1.578667 0.241778-2.375111-0.085333-0.796444-0.241778-1.550222-0.241778-2.375111v-220.444444A21.333333 21.333333 0 0 1 78.222222 28.444444h867.555556a21.333333 21.333333 0 0 1 21.333333 21.333334V270.222222c0 0.824889-0.156444 1.578667-0.241778 2.375111 0.085333 0.796444 0.241778 1.550222 0.241778 2.375111a21.333333 21.333333 0 0 1-21.333333 21.333334c-44.430222 0-80.583111 36.152889-80.583111 80.583111s36.152889 80.583111 80.583111 80.583111a21.333333 21.333333 0 0 1 21.333333 21.333333c0 0.810667-0.156444 1.578667-0.241778 2.375111 0.085333 0.796444 0.241778 1.564444 0.241778 2.375112V704z m-144.583111-327.111111c0-60.672 44.117333-111.118222 101.916444-121.272889V71.111111H99.555556V255.616c57.813333 10.154667 101.930667 60.615111 101.930666 121.272889 0 60.672-44.117333 111.118222-101.930666 121.272889V682.666667h824.888888v-184.504889c-57.799111-10.154667-101.916444-60.600889-101.916444-121.272889z"  horiz-adv-x="1024" />

    
    <glyph glyph-name="fukuan" unicode="&#58901;" d="M99.555556 739.555556v-469.333334h824.888888V739.555556H99.555556z m519.111111-298.666667a21.333333 21.333333 0 0 0 0-42.666667H540.444444v-28.444444a21.333333 21.333333 0 0 0-42.666666 0v28.444444h-64a21.333333 21.333333 0 0 0 0 42.666667H497.777778v42.666667h-64a21.333333 21.333333 0 0 0 0 42.666666h44.501333l-63.132444 70.243556c-8.334222 8.334222-8.334222 25.386667 0 33.720889s21.831111 10.112 30.165333 1.777777l71.111111-70.229333c1.578667-1.578667 2.588444-3.043556 3.569778-4.935111l76.487111 76.714667c8.334222 8.334222 21.831111 8.448 30.165333 0.113777s8.334222-28.885333 0-37.219555L563.498667 526.222222H618.666667a21.333333 21.333333 0 0 0 0-42.666666H540.444444v-42.666667h78.222223zM931.555556 263.111111A21.333333 21.333333 0 0 0 910.222222 284.444444V711.111111H128v-426.666667a21.333333 21.333333 0 1 0-42.666667 0V732.444444A21.333333 21.333333 0 0 0 106.666667 753.777778h824.888889a21.333333 21.333333 0 0 0 21.333333-21.333334V284.444444a21.333333 21.333333 0 0 0-21.333333-21.333333zM708.736-40.305778a21.333333 21.333333 0 0 0-21.333333 21.333334c0 121.912889 77.240889 132.238222 80.526222 132.608 0.810667 0.099556 1.621333 0.142222 2.446222 0.142222 4.778667 0 6.158222 1.507556 6.812445 2.232889 4.707556 5.176889 5.674667 18.517333 5.134222 24.177777A19.484444 19.484444 0 0 0 782.222222 142.222222V472.832c-83.811556-10.026667-109.397333-78.023111-113.777778-91.875556V241.777778a21.333333 21.333333 0 0 0-42.666666 0V384c0 1.777778 0.227556 3.555556 0.668444 5.276444 11.249778 44.088889 62.748444 127.459556 177.109334 127.459556a21.333333 21.333333 0 0 0 21.333333-21.333333V143.075556c0.497778-6.954667 1.436444-36.437333-16.142222-55.751112-9.230222-10.168889-21.816889-15.729778-36.465778-16.184888-5.048889-1.166222-42.211556-12.302222-42.211556-90.112a21.333333 21.333333 0 0 0-21.333333-21.333334zM419.555556-49.777778A21.333333 21.333333 0 0 0 398.222222-28.444444v37.916444c0 11.946667-3.342222 20.608-10.538666 27.264-16.270222 15.089778-48.896 16.156444-58.936889 15.473778a21.333333 21.333333 0 0 0-1.649778-0.071111c-65.066667 0-85.333333 58.439111-85.333333 89.344V241.777778A21.333333 21.333333 0 1 0 284.444444 241.777778v-99.555556c0.341333-7.168 4.096-46.947556 41.998223-47.416889 9.216 0.668444 58.922667 2.247111 90.24-26.766222C432.526222 53.376 440.888889 33.123556 440.888889 9.472V-28.444444a21.333333 21.333333 0 0 0-21.333333-21.333334z"  horiz-adv-x="1024" />

    
    <glyph glyph-name="chenggong" unicode="&#59054;" d="M516 845c251-0.2 454.8-204.17 454.57-454.92-0.23-251.23-204.57-455.32-455.25-454.8C263.95-64.2 60.17 140 60.77 390.81 61.37 642 265.09 845.22 516 845z m393-455c0.41 216.43-176.32 393.34-393.27 393.66C299.48 784 123 607.78 122.32 390.84c-0.64-216.66 175.48-393.34 392.68-394 216.84-0.66 393.68 175.8 394.09 393.21zM472.7 288.63a58.93 58.93 0 0 0 4.23 5.5Q581 398.25 685 502.37c9 9 19.26 13.13 31.67 10.13 22.53-5.45 31.22-32.7 16.28-50.44-1.5-1.78-3.2-3.4-4.85-5L504.06 232.92c-3.06-3.06-6.05-6.2-9.12-9.26-13.11-13.1-32.41-13.07-45.46 0L302.94 370.49c-1.41 1.41-2.85 2.81-4.18 4.3-11.39 12.77-10.92 31.52 1.06 43.34s30.34 12 43 0.81c1.62-1.44 3.13-3 4.66-4.53Q407.73 354.14 468 293.87c1.27-1.29 2.43-2.71 4.7-5.24z"  horiz-adv-x="1024" />

    
    <glyph glyph-name="shebeitaizhang" unicode="&#58884;" d="M633.344 15.5648H520.9088V144.896h28.22144c-9.80992 22.54848-17.33632 43.90912-22.69184 65.25952H104.192c-19.78368 0-37.75488 2.5088-37.75488 21.34016V254.0544H518.4512c-0.41984 0-0.94208 14.4896-0.94208 20.80768 0 14.0288 1.39264 21.9136 3.45088 43.27424H66.44736v403.456c0 8.21248 7.12704 15.70816 12.71808 21.57568 5.57056 5.86752 16.82432 9.25696 25.0368 9.25696h699.21792c8.21248 0 21.26848-9.35936 21.26848-30.83264v-188.35456c21.36064-4.48512 42.72128-11.47904 65.25952-20.39808V721.60256c0 41.3184-31.19104 96.1024-73.48224 96.1024H104.192c-24.064 0-51.94752-12.25728-69.56032-29.56288-17.6128-17.32608-33.45408-41.89184-33.45408-66.53952v-491.28448c0-48.70144 28.34432-85.42208 103.0144-85.42208h243.47648v-129.3312h-70.03136c-8.21248 0-15.2576-4.27008-21.12512-10.15808-5.888-5.86752-8.8064-13.568-8.8064-21.80096 0-8.21248 2.9184-17.22368 8.8064-22.81472 5.86752-5.59104 12.91264-10.496 21.12512-10.496H633.344c8.21248 0 15.23712 4.56704 21.12512 10.15808 5.86752 5.59104 8.8064 13.3632 8.8064 21.57568 0 8.23296-2.93888 17.05984-8.8064 22.92736-5.87776 5.87776-12.91264 10.60864-21.12512 10.60864z m-155.14624 0h-65.25952V144.896h65.25952v-129.3312zM781.6704 187.48416c-44.82048 0-81.28512 36.47488-81.28512 81.28512s36.46464 81.28512 81.28512 81.28512 81.28512-36.47488 81.28512-81.28512-36.46464-81.28512-81.28512-81.28512z m0 119.22432c-20.91008 0-37.92896-17.01888-37.92896-37.92896s17.01888-37.92896 37.92896-37.92896 37.92896 17.01888 37.92896 37.92896a37.98016 37.98016 0 0 1-37.92896 37.92896zM781.09696 36.9152c-16.96768 0-32.95232 1.8944-45.06624 13.81376-12.1856 11.96032-19.00544 25.62048-19.24096 42.7008-5.38624 1.9456-10.68032 3.5328-15.872 5.9904-11.89888-11.44832-27.46368-18.60608-44.04224-18.60608h-0.59392c-16.96768 0-32.96256 6.01088-45.07648 17.93024a63.26272 63.26272 0 0 0-19.2512 45.056 63.61088 63.61088 0 0 0 18.2272 45.312 189.53216 189.53216 0 0 0-6.56384 15.872 63.90784 63.90784 0 0 0-43.83744 18.40128 63.92832 63.92832 0 0 0-19.2512 45.32224 63.80544 63.80544 0 0 0 18.45248 45.64992 63.8976 63.8976 0 0 0 45.01504 19.24096 190.0544 190.0544 0 0 0 6.88128 16.40448 63.8976 63.8976 0 0 0-17.83808 44.11392 63.91808 63.91808 0 0 0 18.5856 45.59872 64.43008 64.43008 0 0 0 90.7776 0.78848c4.89472 2.2528 9.8816 4.3008 14.94016 6.13376 0.57344 34.99008 29.21472 63.27296 64.33792 63.27296s63.76448-28.28288 64.33792-63.27296c5.43744-1.96608 10.78272-4.18816 16.0256-6.64576 24.9344 24.064 64.78848 24.064 89.7024-0.27648a63.8464 63.8464 0 0 0 19.36384-45.27104 63.87712 63.87712 0 0 0-18.1248-45.48608c2.41664-5.15072 4.58752-10.40384 6.53312-15.74912a64.44032 64.44032 0 0 0 63.31392-63.54944 63.8976 63.8976 0 0 0-18.29888-45.74208 63.92832 63.92832 0 0 0-44.94336-19.38432 189.27616 189.27616 0 0 0-6.85056-16.44544 63.93856 63.93856 0 0 0 17.99168-44.032 64.01024 64.01024 0 0 0-18.42176-45.68064c-24.7808-25.23136-65.45408-25.69216-90.7776-1.05472-5.25312-2.4576-10.5984-0.01024-16.04608-1.95584-0.67584-34.65216-28.91776-58.43968-63.77472-58.43968l-0.6144-0.01024z m-86.4768 110.47936c3.93216 0 7.84384-1.08544 11.28448-3.15392a144.14848 144.14848 0 0 1 40.40704-16.896 21.67808 21.67808 0 0 0 15.18592-28.34432 20.72576 20.72576 0 0 1-1.35168-7.17824c0.04096-5.65248 2.27328-10.89536 6.27712-14.83776 4.00384-3.91168 8.43776-6.144 14.88896-6.01088a21.0432 21.0432 0 0 1 20.81792 21.18656 21.00224 21.00224 0 0 1-1.34144 6.66624 21.74976 21.74976 0 0 0 1.3824 17.53088c2.92864 5.376 7.9872 9.27744 13.9264 10.73152 14.31552 3.4816 28.02688 9.1136 40.64256 16.72192a21.64736 21.64736 0 0 0 30.78144-9.30816c1.18784-2.49856 2.51904-4.46464 4.10624-6.03136 8.28416-8.11008 21.6064-7.99744 29.71648 0.27648 3.91168 3.96288 6.08256 9.32864 6.01088 14.8992a20.87936 20.87936 0 0 1-6.28736 14.77632 21.1968 21.1968 0 0 1-5.74464 3.82976 21.66784 21.66784 0 0 0-9.10336 30.79168 144.47616 144.47616 0 0 1 16.9984 40.87808 21.66784 21.66784 0 0 0 28.27264 15.27808c2.31424-0.83968 4.75136-1.29024 7.2192-1.3312a20.7872 20.7872 0 0 1 14.77632 6.32832c3.90144 3.97312 6.05184 9.34912 5.96992 14.91968-0.14336 11.56096-10.40384 20.13184-21.23776 20.72576-2.07872-0.29696-4.11648-0.44032-6.64576-1.35168a21.7088 21.7088 0 0 0-28.37504 15.21664 144.75264 144.75264 0 0 1-16.72192 40.36608 21.66784 21.66784 0 0 0 9.18528 30.7712c2.53952 1.20832 4.53632 2.58048 6.08256 4.16768 3.91168 3.97312 6.07232 9.34912 5.9904 14.91968a20.81792 20.81792 0 0 1-6.30784 14.77632 21.03296 21.03296 0 0 1-29.696-0.33792c-1.37216-1.42336-2.6112-3.2768-3.76832-5.71392a21.7088 21.7088 0 0 0-30.81216-9.18528 143.94368 143.94368 0 0 1-40.56064 16.80384 21.69856 21.69856 0 0 0-15.26784 28.32384c0.91136 2.56 1.35168 4.82304 1.35168 6.94272 0 11.58144-9.4208 21.00224-21.00224 21.00224-11.58144 0-20.992-9.4208-20.992-21.00224 0-2.11968 0.44032-4.38272 1.35168-6.94272a21.66784 21.66784 0 0 0-15.2576-28.32384 143.77984 143.77984 0 0 1-39.76192-16.32256 21.59616 21.59616 0 0 0-17.4592-2.11968 21.6064 21.6064 0 0 0-13.28128 11.50976 20.50048 20.50048 0 0 1-4.10624 6.05184 21.0432 21.0432 0 0 1-29.71648-0.19456 20.80768 20.80768 0 0 1-6.05184-14.85824 20.7872 20.7872 0 0 1 6.23616-14.7968c1.4336-1.42336 3.2768-2.6624 5.6832-3.82976a21.63712 21.63712 0 0 0 9.0624-30.86336 144.76288 144.76288 0 0 1-17.12128-40.79616 21.72928 21.72928 0 0 0-10.8032-13.88544 21.76 21.76 0 0 0-17.54112-1.29024c-2.58048 0.91136-4.7616 1.54624-7.12704 1.3312a20.80768 20.80768 0 0 1-14.85824-6.26688 20.79744 20.79744 0 0 1-6.02112-14.8992c0.0512-5.61152 2.27328-10.8544 6.27712-14.7968 3.92192-3.86048 9.20576-6.02112 14.71488-6.01088 1.792-0.19456 4.27008 0.41984 6.9632 1.35168a21.66784 21.66784 0 0 0 28.19072-15.34976 144.91648 144.91648 0 0 1 16.68096-40.56064c3.15392-5.25312 3.9424-11.60192 2.17088-17.4592a21.72928 21.72928 0 0 0-11.47904-13.312 20.76672 20.76672 0 0 1-6.07232-4.1472 20.8896 20.8896 0 0 1-6.00064-14.87872c0.03072-5.57056 2.304-10.88512 6.28736-14.77632 4.01408-3.96288 9.96352-6.74816 14.8992-6.03136a20.82816 20.82816 0 0 1 14.7968 6.28736c1.37216 1.39264 2.6112 3.25632 3.77856 5.69344a21.69856 21.69856 0 0 0 13.39392 11.40736c1.97632 0.63488 4.0448 0.93184 6.11328 0.93184z"  horiz-adv-x="1024" />

    
    <glyph glyph-name="qiye" unicode="&#58977;" d="M188.58496 762.02496h457.38496v-757.76H188.58496zM440.4992 634.24h145.1264V582.912H440.4992V634.24zM440.4992 454.272h145.1264v-52.3776H440.4992v52.3776zM744.81152 277.7344h46.40768V132.608h-46.40768v145.1264zM744.81152 473.1392h46.40768v-145.13152h-46.40768V473.1392zM245.0944 277.7344h145.152v-51.32288H245.0944v51.32288zM910.976 17.8688V634.24H682.2912V798.464H146.3552v-780.5952H50.7136v-48.44032h924.672v48.44032h-64.4096z m-49.5104 570.0096v-570.0096H682.2912V587.8784h179.1744z m-225.536 162.1504v-732.16H195.84v732.16h440.0896zM245.0944 454.272h145.152v-52.3776H245.0944v52.3776zM440.4992 277.7344h145.1264v-51.32288H440.4992v51.32288zM245.0944 634.24h145.152V582.912H245.0944V634.24z"  horiz-adv-x="1024" />

    
    <glyph glyph-name="quanxian" unicode="&#58979;" d="M781.25056 438.58432H241.49504c-28.27776 0-51.2-22.92224-51.2-51.2v-379.39712c0-28.27264 22.92224-51.2 51.2-51.2h539.75552c28.26752 0 51.2 22.92736 51.2 51.2V387.38432c0 28.27776-22.93248 51.2-51.2 51.2zM781.25056-67.4304H241.49504c-41.58464 0-75.4176 33.83296-75.4176 75.4176V387.38432c0 41.58464 33.83296 75.4176 75.4176 75.4176h539.75552c41.58464 0 75.4176-33.83296 75.4176-75.4176v-379.39712c0-41.58464-33.83296-75.4176-75.4176-75.4176zM241.49504 414.36672a27.01312 27.01312 0 0 1-26.9824-26.9824v-379.39712a27.01312 27.01312 0 0 1 26.9824-26.9824h539.75552a27.008 27.008 0 0 1 26.9824 26.9824V387.38432a27.008 27.008 0 0 1-26.9824 26.9824H241.49504zM724.04992 416.1024H299.95008a24.2176 24.2176 0 0 0-24.2176 24.2176V656.14848c0 110.17216 103.56736 177.8176 177.8176 177.8176h116.89984c83.9424 0 177.8176-76.04736 177.8176-177.8176V440.32a24.2176 24.2176 0 0 0-24.2176-24.2176z m-399.88224 48.4352h375.66464V656.14848c0 72.86272-69.55008 129.3824-129.3824 129.3824H453.55008c-52.75136 0-129.3824-50.40128-129.3824-129.3824V464.5376z"  horiz-adv-x="1024" />

    
    <glyph glyph-name="shuju" unicode="&#58982;" d="M236.31872 1.44384h588.8768l-41.23136 461.8496-197.77536-219.06432-124.61056 105.72288-224.78848-216.09472-13.9776-19.27168zM779.99104 464.45568h48.44032v-462.94528h-48.44032V464.45568zM586.1888 245.96992h48.44032v-244.45952h-48.44032v244.45952zM387.27168 276.04992h48.4352v-274.53952h-48.4352v274.53952zM188.35456 133.85728h48.4352v-132.34688h-48.4352v132.34688zM829.7472 754.26816l-195.58912-45.65504 63.36512-62.01344-175.30368-191.04256-87.99744 86.72768-249.10336-249.10336 34.24768-34.2528 215.10656 215.10656 89.4976-88.20736 208.19968 226.87744 64.27136-62.88896z"  horiz-adv-x="1024" />

    
    <glyph glyph-name="yuangong" unicode="&#58984;" d="M433.62304 351.5904c-127.47776 0-231.18848 103.71584-231.18848 231.1936s103.71072 231.18848 231.18848 231.18848 231.1936-103.71072 231.1936-231.18848c0-127.47776-103.71584-231.1936-231.1936-231.1936z m0 413.94688c-100.77184 0-182.75328-81.98144-182.75328-182.75328 0-100.77184 81.98144-182.7584 182.75328-182.7584 100.77184 0 182.75328 81.98656 182.75328 182.7584s-81.98144 182.75328-182.75328 182.75328zM654.72 362.08128a24.2176 24.2176 0 0 0-5.46304 47.81568c83.13344 19.31264 141.19424 92.51328 141.19424 178.01216 0 105.34912-75.776 187.87328-172.51328 187.87328a24.2176 24.2176 0 0 0 0 48.4352c123.89888 0 220.9536-103.79776 220.9536-236.30848 0-108.14976-73.47712-200.75008-178.67264-225.18784-1.8432-0.4352-3.6864-0.64-5.49888-0.64zM432.79872 367.36c-177.52576 0-321.43872-143.90784-321.43872-321.43872 0-2.05824 0.06144-6.18496 0.06144-6.18496S166.4-19.6608 467.20512-18.2784c196.87424-0.0256 287.03744 64.19968 287.03744 64.19968 0 177.53088-143.91296 321.43872-321.44384 321.43872zM456.93952-42.5216c-293.85216 0-357.0432 59.06432-363.28448 65.80224a24.19712 24.19712 0 0 0-6.44608 16.09216s-0.06656 4.37248-0.06656 6.54848c0 190.59712 155.0592 345.65632 345.65632 345.65632s345.66144-155.06432 345.66144-345.65632c0-7.82848-3.7888-15.1808-10.16832-19.72736-3.93728-2.80576-98.76992-68.69504-300.96384-68.69504h-0.00512l-10.38336-0.02048z m-321.29536 94.72c22.19008-12.67712 101.76-46.2848 321.29536-46.2848l10.15296 0.02048c148.93568 0 234.35776 38.21056 262.62016 53.53472-7.10656 157.62432-137.56928 283.66848-296.91904 283.66848-161.78176 0.00512-293.79584-129.93536-297.14944-290.93888zM928.32256 37.05856a24.2176 24.2176 0 0 0-24.2176 24.2176c0 165.87776-147.72736 281.216-249.83552 297.5232a24.2176 24.2176 0 0 0-20.096 27.73504 24.2432 24.2432 0 0 0 27.73504 20.096c118.784-18.97472 290.6368-152.87296 290.6368-345.35424a24.22784 24.22784 0 0 0-24.22272-24.2176z"  horiz-adv-x="1024" />

    
    <glyph glyph-name="yunying" unicode="&#58985;" d="M81.92 476.16h846.08v-288H81.92zM789.20192 546.19136l-191.72864-155.06432-202.79808 137.6256a26.3168 26.3168 0 0 1-32.38912-2.22208l-161.98656-145.80224A26.3168 26.3168 0 1 1 235.52 341.59616L382.17728 473.6l201.89696-137.00608a26.22976 26.22976 0 0 1 14.77632-4.54144 26.27072 26.27072 0 0 1 16.55296 5.85728l206.90432 167.34208a26.32192 26.32192 0 0 1 3.9168 37.0176 26.3168 26.3168 0 0 1-37.02272 3.92192zM899.82976 756.43904h-361.68192v39.13216c0 14.75584-12.07808 27.19232-26.8288 26.91072a26.32704 26.32704 0 0 1-25.81504-26.3168v-39.72608h-361.6768c-32.96768 0-59.69408-26.7264-59.69408-59.69408v-491.55584c0-32.96768 26.7264-59.6992 59.69408-59.6992h361.68192v-30.01344l-163.47136-123.86304a26.32704 26.32704 0 1 1 31.7952-41.9584l131.67104 99.77344s8.5504 6.272 16.01024 11.43296a17.85856 17.85856 0 0 0 20.41344-0.05632l16.22016-11.38176 131.67616-99.77344a26.19904 26.19904 0 0 1 15.87712-5.34528 26.32192 26.32192 0 0 1 15.9232 47.30368l-163.47136 123.86816v30.01344h361.68192c32.96768 0 59.6992 26.7264 59.6992 59.69408V696.75008c-0.01024 32.96256-26.73152 59.68896-59.70432 59.68896z m7.05024-551.24992c0-3.8912-3.15904-7.05024-7.05024-7.05024H123.8272a7.05024 7.05024 0 0 0-7.04512 7.05024V696.75008c0 3.88608 3.16416 7.04512 7.04512 7.04512h776.00256c3.8912 0 7.05024-3.15904 7.05024-7.04512v-491.56096z"  horiz-adv-x="1024" />

    
    <glyph glyph-name="dianfei" unicode="&#58922;" d="M512 384m-480 0a480 480 0 1 1 960 0 480 480 0 1 1-960 0ZM512 697.6h-6.4c-115.2-6.4-211.2-102.4-211.2-217.6 0-57.6 19.2-108.8 57.6-147.2l12.8-12.8c25.6-32 38.4-38.4 38.4-76.8v-19.2h217.6v19.2c0 38.4 12.8 51.2 38.4 76.8l19.2 19.2c32 38.4 51.2 89.6 51.2 140.8 0 121.6-96 217.6-217.6 217.6M448 115.2c0-12.8 12.8-19.2 19.2-19.2h89.6c12.8 0 19.2 6.4 19.2 19.2 0 12.8-12.8 19.2-19.2 19.2H467.2c-12.8 0-19.2-6.4-19.2-19.2zM512 608c-70.4 0-128-57.6-128-128 0-12.8 12.8-19.2 19.2-19.2s19.2 12.8 19.2 19.2c0 44.8 38.4 89.6 89.6 89.6 12.8 0 19.2 12.8 19.2 19.2s-6.4 19.2-19.2 19.2zM403.2 179.2c0-12.8 12.8-19.2 19.2-19.2h172.8c12.8 0 19.2 6.4 19.2 19.2 0 12.8-12.8 19.2-19.2 19.2H422.4c-6.4 0-19.2-6.4-19.2-19.2z"  horiz-adv-x="1024" />

    
    <glyph glyph-name="gengduo" unicode="&#58923;" d="M512 384m-480 0a480 480 0 1 1 960 0 480 480 0 1 1-960 0ZM249.6 601.6c0 25.6 19.2 44.8 44.8 44.8h166.4c32 0 51.2-19.2 51.2-44.8v-166.4c0-32-19.2-51.2-44.8-51.2H294.4c-25.6 0-44.8 19.2-44.8 44.8V601.6zM556.8 550.4c0 25.6 19.2 51.2 44.8 51.2h121.6c25.6 0 51.2-19.2 51.2-51.2v-121.6c0-25.6-19.2-51.2-51.2-51.2H601.6c-25.6 0-44.8 25.6-44.8 51.2V550.4zM556.8 288c0 25.6 19.2 51.2 51.2 51.2h121.6c25.6 0 51.2-19.2 51.2-44.8v-64l-108.8-108.8h-64c-25.6 0-44.8 19.2-44.8 51.2V288zM665.6 179.2c0 25.6 19.2 44.8 44.8 44.8h64l-108.8-108.8v64zM294.4 294.4c0 25.6 19.2 51.2 51.2 51.2h121.6c25.6-6.4 44.8-25.6 44.8-51.2v-121.6c0-25.6-19.2-51.2-51.2-51.2H339.2c-25.6 0-51.2 19.2-51.2 51.2V294.4zM294.4 601.6h166.4V576H294.4zM294.4 550.4h96v-25.6H294.4z"  horiz-adv-x="1024" />

    
    <glyph glyph-name="ranqifei" unicode="&#58924;" d="M512 384m-480 0a480 480 0 1 1 960 0 480 480 0 1 1-960 0ZM601.6 422.4c-57.6 64-57.6 140.8-57.6 249.6-179.2-70.4-134.4-262.4-140.8-326.4-44.8 38.4-57.6 128-57.6 128C294.4 448 268.8 384 268.8 332.8c0-128 108.8-236.8 243.2-236.8s243.2 102.4 243.2 236.8c0 76.8-57.6 115.2-57.6 217.6-83.2-25.6-96-89.6-96-128zM505.6 358.4c83.2-32 64-121.6 64-147.2 19.2 19.2 25.6 57.6 25.6 57.6 19.2-12.8 32-38.4 32-64 0-57.6-51.2-108.8-108.8-108.8s-108.8 51.2-108.8 108.8c6.4 57.6 96 102.4 96 153.6z"  horiz-adv-x="1024" />

    
    <glyph glyph-name="shuidianmei" unicode="&#58925;" d="M512 384m-480 0a480 480 0 1 1 960 0 480 480 0 1 1-960 0ZM691.2 454.4L512 716.8c-6.4 6.4-19.2 6.4-25.6 0l-179.2-256c-102.4-147.2-6.4-364.8 172.8-371.2h38.4c179.2 6.4 275.2 217.6 172.8 364.8zM608 371.2l-128-160c-6.4-6.4-12.8 0-12.8 6.4l12.8 83.2c0 6.4 0 6.4-6.4 6.4H377.6c-6.4 6.4-6.4 12.8 0 12.8L512 486.4c6.4 6.4 12.8 0 12.8-6.4l-25.6-89.6c0-6.4 6.4-6.4 12.8-6.4h96c6.4 0 6.4-6.4 0-12.8z"  horiz-adv-x="1024" />

    
    <glyph glyph-name="shoujichongzhi" unicode="&#58926;" d="M512 384m-480 0a480 480 0 1 1 960 0 480 480 0 1 1-960 0ZM678.4 115.2H345.6c-25.6 0-44.8 19.2-44.8 44.8V646.4c0 25.6 19.2 44.8 44.8 44.8h332.8c25.6 0 44.8-19.2 44.8-44.8v-486.4c0-25.6-19.2-44.8-44.8-44.8zM633.6 288H390.4c-19.2 0-32 12.8-32 32V601.6c0 19.2 12.8 32 32 32H640c19.2 0 32-12.8 32-32V320c-6.4-19.2-19.2-32-38.4-32zM512 198.4m-38.4 0a38.4 38.4 0 1 1 76.8 0 38.4 38.4 0 1 1-76.8 0Z"  horiz-adv-x="1024" />

    
    <glyph glyph-name="shuifei" unicode="&#58927;" d="M512 384m-480 0a480 480 0 1 1 960 0 480 480 0 1 1-960 0ZM512 716.8c-96-102.4-262.4-236.8-262.4-384s115.2-262.4 262.4-262.4 262.4 115.2 262.4 262.4-160 281.6-262.4 384zM512 211.2c-57.6 0-102.4 44.8-102.4 108.8 0 57.6 64 102.4 102.4 147.2 38.4-44.8 102.4-89.6 102.4-147.2 0-57.6-44.8-108.8-102.4-108.8z"  horiz-adv-x="1024" />

    
    <glyph glyph-name="tahangqia" unicode="&#58928;" d="M512 384m-480 0a480 480 0 1 1 960 0 480 480 0 1 1-960 0ZM294.4 550.4c0 25.6 25.6 51.2 51.2 51.2h435.2c25.6 0 44.8-19.2 44.8-44.8v-288c0-25.6-19.2-44.8-44.8-44.8H345.6c-25.6 0-44.8 19.2-44.8 44.8V550.4zM224 505.6c0 25.6 19.2 44.8 44.8 44.8H704c25.6 0 44.8-19.2 44.8-44.8v-288c0-25.6-19.2-44.8-44.8-44.8H268.8c-25.6 0-44.8 19.2-44.8 44.8V505.6zM224 480h524.8v-51.2H224zM268.8 313.6h96v-70.4H268.8z"  horiz-adv-x="1024" />

    
    <glyph glyph-name="wodezhanghu" unicode="&#58929;" d="M512 384m-480 0a480 480 0 1 1 960 0 480 480 0 1 1-960 0ZM640 620.8c19.2 0 38.4-19.2 38.4-44.8v-384c0-25.6-19.2-44.8-38.4-44.8H288c-19.2 0-38.4 19.2-38.4 44.8V576c0 25.6 19.2 44.8 38.4 44.8H640M774.4 512v-332.8c0-19.2-19.2-38.4-44.8-38.4H294.4c-25.6 0-44.8 19.2-44.8 38.4V550.4h480c25.6 0 44.8-12.8 44.8-38.4zM684.8 416c-38.4 0-70.4-32-70.4-70.4s32-70.4 70.4-70.4h89.6V416h-89.6z m0-89.6c-12.8 0-25.6 12.8-25.6 25.6s12.8 25.6 25.6 25.6 25.6-12.8 25.6-25.6-12.8-25.6-25.6-25.6z"  horiz-adv-x="1024" />

    
    <glyph glyph-name="xinyongqia" unicode="&#58930;" d="M512 384m-480 0a480 480 0 1 1 960 0 480 480 0 1 1-960 0ZM224 531.2c0 25.6 19.2 44.8 51.2 44.8h480c25.6 0 51.2-19.2 51.2-44.8v-288c0-25.6-19.2-44.8-51.2-44.8H275.2c-25.6 0-51.2 19.2-51.2 44.8V531.2zM224 505.6h576v-70.4h-576zM633.6 288c0 12.8 12.8 25.6 25.6 25.6h70.4c12.8 0 25.6-12.8 25.6-25.6v-25.6c0-12.8-12.8-25.6-25.6-25.6h-70.4c-12.8 0-25.6 12.8-25.6 25.6v25.6z"  horiz-adv-x="1024" />

    
    <glyph glyph-name="zijinguiji" unicode="&#58931;" d="M512 384m-480 0a480 480 0 1 1 960 0 480 480 0 1 1-960 0ZM371.2 192c0 12.8 12.8 25.6 25.6 25.6h384c12.8 0 25.6-12.8 25.6-25.6v-44.8c0-12.8-12.8-25.6-25.6-25.6h-384c-12.8 0-25.6 12.8-25.6 25.6V192zM371.2 332.8c0 12.8 12.8 25.6 25.6 25.6h384c12.8 0 25.6-12.8 25.6-25.6v-44.8c0-12.8-12.8-25.6-25.6-25.6h-384c-12.8 0-25.6 12.8-25.6 25.6v44.8zM416 480c0 12.8 12.8 25.6 25.6 25.6h384c12.8 0 25.6-12.8 25.6-25.6v-44.8c0-12.8-12.8-25.6-25.6-25.6h-384c-12.8 0-25.6 12.8-25.6 25.6v44.8zM320 620.8c0 19.2 12.8 25.6 25.6 25.6h384c12.8 0 25.6-12.8 25.6-25.6V576c0-12.8-12.8-25.6-25.6-25.6h-384c-12.8 0-25.6 12.8-25.6 25.6v44.8zM416 332.8m-217.6 0a217.6 217.6 0 1 1 435.2 0 217.6 217.6 0 1 1-435.2 0ZM339.2 313.6v-32h57.6v-51.2h32v51.2h57.6v32h-57.6v19.2h57.6v32h-44.8l44.8 44.8-19.2 25.6-51.2-57.6-57.6 57.6-19.2-25.6 44.8-44.8h-44.8v-32h57.6v-19.2z"  horiz-adv-x="1024" />

    
    <glyph glyph-name="youxiandianshi" unicode="&#58932;" d="M512 384m-480 0a480 480 0 1 1 960 0 480 480 0 1 1-960 0ZM326.4 147.2c0 12.8 6.4 19.2 19.2 19.2h326.4c12.8 0 19.2-6.4 19.2-19.2 0-12.8-6.4-19.2-19.2-19.2H345.6c-6.4 6.4-19.2 12.8-19.2 19.2zM697.6 556.8c32 0 57.6-25.6 57.6-57.6v-249.6c0-32-25.6-57.6-57.6-57.6H326.4c-32 0-57.6 25.6-57.6 57.6V499.2c0 32 25.6 57.6 57.6 57.6h371.2zM652.8 256c0-12.8-6.4-19.2-19.2-19.2H339.2c-12.8 6.4-19.2 12.8-19.2 19.2V486.4c0 12.8 6.4 19.2 19.2 19.2H640c6.4 0 19.2-6.4 19.2-19.2V256zM704 435.2m-25.6 0a25.6 25.6 0 1 1 51.2 0 25.6 25.6 0 1 1-51.2 0ZM704 358.4m-25.6 0a25.6 25.6 0 1 1 51.2 0 25.6 25.6 0 1 1-51.2 0ZM537.6 505.6h-12.8L518.4 512l-6.4-6.4c-12.8-6.4-25.6 0-32 6.4L409.6 620.8c-6.4 12.8-6.4 25.6 6.4 32 12.8 12.8 25.6 6.4 32-6.4l70.4-102.4 70.4 140.8c6.4 12.8 19.2 19.2 32 12.8 12.8-6.4 19.2-19.2 12.8-32L556.8 518.4c-6.4-6.4-12.8-12.8-19.2-12.8z"  horiz-adv-x="1024" />

    
    <glyph glyph-name="zhuanzhanghuikuan" unicode="&#58933;" d="M512 384m-480 0a480 480 0 1 1 960 0 480 480 0 1 1-960 0ZM262.4 358.4l32-236.8c6.4-25.6 19.2-32 32-6.4l76.8 115.2-140.8 128zM761.6 409.6L704 646.4c-6.4 25.6-19.2 25.6-32 6.4l-57.6-115.2 147.2-128zM512 384m-262.4 0a262.4 262.4 0 1 1 524.8 0 262.4 262.4 0 1 1-524.8 0ZM416 352v-38.4h76.8v-57.6h32v57.6h76.8v38.4H524.8v25.6h76.8v38.4h-57.6l57.6 57.6-25.6 32-70.4-70.4-64 70.4-25.6-32 57.6-57.6h-57.6v-38.4h76.8v-25.6z"  horiz-adv-x="1024" />

    
    <glyph glyph-name="shezhi" unicode="&#59008;" d="M642.227-26.179h-0.010c-15.8 0-31.16 6.533-41.078 17.48-13.522 14.822-56.351 53.361-91.407 53.361-34.816 0-78.305-38.758-90.793-52.342-9.902-10.762-25.149-17.183-40.801-17.183-7.455 0-14.49 1.428-20.915 4.255l-1.121 0.492-106.563 59.592-1.060 0.742c-19.4 13.578-26.778 40.141-17.172 61.778 0.077 0.169 9.83 22.676 9.83 43.203 0 62.28-50.668 112.952-112.957 112.952h-3.773l-0.691-0.010c-17.838 0-32.364 15.852-37.007 40.381-0.369 1.961-9.093 48.486-9.093 85.14s8.719 83.18 9.088 85.146c4.7 24.842 19.543 40.796 37.699 40.366h3.773c62.285 0 112.957 50.673 112.957 112.957 0 20.521-9.748 43.018-9.851 43.244-9.6 21.627-2.171 48.179 17.311 61.722l1.106 0.763 112.461 61.768 1.172 0.497c6.328 2.698 13.266 4.070 20.613 4.070 15.611 0 30.894-6.287 40.883-16.809 13.312-13.937 55.383-50.181 89.441-50.181 33.731 0 75.54 35.523 88.812 49.219 9.928 10.312 25.103 16.486 40.571 16.486 7.496 0 14.561-1.413 20.992-4.214l1.142-0.497 108.621-60.344 1.070-0.748c19.43-13.563 26.829-40.125 17.213-61.783-0.077-0.164-9.825-22.671-9.825-43.197 0-62.28 50.668-112.957 112.952-112.957h3.779c18.13 0.404 32.988-15.524 37.688-40.366 0.369-1.961 9.093-48.486 9.093-85.146 0-36.649-8.724-83.18-9.093-85.14-4.7-24.842-19.558-40.74-37.693-40.371h-3.773c-62.28 0-112.952-50.668-112.952-112.952 0-20.521 9.748-43.018 9.846-43.244 9.595-21.606 2.186-48.164-17.265-61.722l-1.091-0.753-110.449-61.051-1.152-0.497c-6.318-2.729-13.23-4.106-20.526-4.106zM638.863 25.856c0.497-0.323 1.889-0.876 3.354-0.876l0.164 0.005 103.194 57.037c-2.488 5.791-13.885 33.869-13.885 63.165 0 87.603 69.007 159.406 155.515 163.896 1.244 6.876 8.003 45.548 8.003 74.568 0 29.015-6.758 67.676-8.003 74.563-86.508 4.495-155.515 76.288-155.515 163.901 0 29.332 11.428 57.457 13.901 63.196l-101.519 56.407c-0.113 0.005-0.261 0.015-0.42 0.015-1.731 0-3.348-0.63-3.886-0.993-1.705-1.751-16.42-16.671-37.555-31.539-31.288-22.016-60.882-33.172-87.941-33.172-27.336 0-57.16 11.382-88.648 33.828-21.263 15.155-36.050 30.367-37.755 32.143-0.538 0.369-2.176 1.019-3.922 1.019l-0.364-0.010-105.149-57.754c2.519-5.862 13.87-33.894 13.87-63.135 0-87.603-69.007-159.401-155.515-163.896-1.244-6.881-8.003-45.548-8.003-74.568 0-29.010 6.758-67.671 8.008-74.568 86.508-4.49 155.51-76.283 155.51-163.891 0-29.394-11.469-57.569-13.911-63.237l99.523-55.649 0.22-0.005c1.454 0 2.831 0.532 3.318 0.85 1.859 2.002 16.732 17.731 38.134 33.418 31.913 23.388 62.244 35.251 90.138 35.251 28.165 0 58.726-12.083 90.824-35.922 21.54-15.995 36.465-32.026 38.318-34.048zM505.288 557.466c-98.468 0-178.586-80.113-178.586-178.586s80.113-178.586 178.586-178.586 178.591 80.118 178.591 178.586-80.118 178.586-178.591 178.586zM505.288 257.403c-64.973 0-121.492 56.499-121.492 121.477s56.515 121.492 121.492 121.492c64.978 0 121.482-56.515 121.482-121.492s-56.499-121.477-121.482-121.477zM505.288 501.586c-64.973 0-122.711-57.733-122.711-122.706s57.733-122.685 122.711-122.685c64.978 0 122.691 57.708 122.691 122.685s-57.708 122.706-122.691 122.706z"  horiz-adv-x="1024" />

    
    <glyph glyph-name="bumen" unicode="&#59015;" d="M223.46752 274.48832v0.1536H149.62176c-38.5536 0-69.91872-31.36512-69.91872-69.9136v-170.7776c0-38.54848 31.36512-69.9136 69.91872-69.9136h198.00576c38.5536 0 69.9136 31.36512 69.9136 69.9136v170.7776c0 38.54848-31.36 69.9136-69.9136 69.9136h-75.008v-0.1536h-49.152z m124.16-48.99328a20.7872 20.7872 0 0 0 20.76672-20.76672v-170.7776a20.7872 20.7872 0 0 0-20.76672-20.76672H149.62176a20.7872 20.7872 0 0 0-20.76672 20.76672v170.7776a20.79232 20.79232 0 0 0 20.76672 20.76672h198.00576zM541.41952 496.68608v-0.01024h69.58592c38.54848 0 69.9136 31.36 69.9136 69.9136V737.36704c0 38.5536-31.36512 69.91872-69.9136 69.91872H412.99968c-38.5536 0-69.91872-31.36512-69.91872-69.91872v-170.77248c0-38.5536 31.36512-69.9136 69.91872-69.9136h79.78496v0.01024h48.63488z m-128.41984 49.13664a20.7872 20.7872 0 0 0-20.77184 20.76672V737.36704a20.79744 20.79744 0 0 0 20.77184 20.77184h198.00576a20.79232 20.79232 0 0 0 20.76672-20.77184v-170.77248a20.7872 20.7872 0 0 0-20.76672-20.76672H412.99968zM878.35136 274.64704H803.584v-0.1536h-49.65888v0.1536h-73.5744c-38.5536 0-69.91872-31.36512-69.91872-69.91872v-170.77248c0-38.54848 31.36512-69.9136 69.91872-69.9136h198.00064c38.54848 0 69.9136 31.36512 69.9136 69.9136v170.77248c0 38.5536-31.36512 69.91872-69.9136 69.91872z m20.7616-240.69632a20.7872 20.7872 0 0 0-20.76672-20.76672H680.3456a20.79232 20.79232 0 0 0-20.77184 20.76672v170.77248a20.79744 20.79744 0 0 0 20.77184 20.77184h198.00064a20.79232 20.79232 0 0 0 20.76672-20.77184v-170.77248zM803.584 274.48832v0.15872l0.01024 126.62272h-262.17472V496.68608h-48.63488v-0.01024l0.19456-95.45216-269.51168 0.04608v-126.78144h49.152v77.63968h481.46432l-0.15872-77.48096v-0.15872zM128.85504 33.95072a20.7872 20.7872 0 0 1 20.77184-20.7616h198.00576a20.7872 20.7872 0 0 1 20.76672 20.7616v170.77248a20.7872 20.7872 0 0 1-20.76672 20.77184H149.62688a20.79744 20.79744 0 0 1-20.77184-20.77184v-170.77248M659.57888 33.95072a20.7872 20.7872 0 0 1 20.77184-20.7616h198.00576a20.7872 20.7872 0 0 1 20.76672 20.7616v170.77248a20.7872 20.7872 0 0 1-20.76672 20.77184h-198.00576a20.79744 20.79744 0 0 1-20.77184-20.77184v-170.77248"  horiz-adv-x="1024" />

    
    <glyph glyph-name="tianjialianxiren" unicode="&#58934;" d="M480.6 402.7c136 0 246.6 110.6 246.6 246.6S616.6 896 480.6 896 234 785.4 234 649.4s110.6-246.7 246.6-246.7zM882.6 157.4v-6.2c0-45.2-36.8-82-82-82s-82 36.8-82 82v65h-65c-45.2 0-82 36.8-82 82 0 21.7 8.5 41.5 22.3 56.1-35.7 8-72.7 12.2-110.6 12.2-183.9 0-348.4-102.6-429.3-267.8-6-12.2-17.2-48.5-16.4-71.4 3.3-93.8 54.1-150.4 140.7-155.3H757.7c18.6 0 113.4 3.2 156 65.9 26.5 39 27.1 91.1 1.8 154.9-9 22.6-20 44.2-32.9 64.6zM947.6 337H839.4V445.2c0 21.4-17.5 38.8-38.8 38.8-21.4 0-38.8-17.5-38.8-38.8V337H653.6h-0.1c-21.3-0.1-38.7-17.5-38.7-38.8 0-21.4 17.5-38.8 38.8-38.8h108.2v-108.2c0-21.4 17.5-38.8 38.8-38.8 21.4 0 38.8 17.5 38.8 38.8V259.3h108.2c21.4 0 38.8 17.5 38.8 38.8 0 21.4-17.4 38.9-38.8 38.9z"  horiz-adv-x="1024" />

    
    <glyph glyph-name="hua" unicode="&#58906;" d="M393.6-78.112c-9.696 0-19.392 3.936-26.368 11.808-91.712 102.624-239.84 103.648-243.008 103.648h-0.192a35.328 35.328 0 0 0-35.328 35.04 35.168 35.168 0 0 0 34.88 35.456c7.264 0.48 182.368 0.128 296.224-127.264 13.024-14.496 11.68-36.8-2.88-49.728-6.528-5.952-14.976-8.96-23.328-8.96z m236.352 0.16a35.232 35.232 0 0 0-25.952 59.136c117.856 127.232 289.248 127.008 296.128 126.688a35.04 35.04 0 0 0 34.848-35.584 35.2 35.2 0 0 0-35.232-34.912h-0.32c-2.88 0-148.064-0.832-243.744-104.128-6.816-7.424-16.32-11.2-25.728-11.2z m-62.176 179.168h-111.744a35.2 35.2 0 0 0-10.304 1.504c-119.136 15.328-220.576 84.48-285.76 195.36-75.808 128.864-93.248 295.808-43.2 415.36 5.44 12.896 17.888 21.376 31.84 21.696l10.624 0.192c67.168 0 129.76-12.736 186.912-37.76 41.248 75.328 88.224 132.48 140.224 170.368a36.064 36.064 0 0 0 47.744-0.576c51.968-38.208 97.792-94.592 139.328-171.456 58.176 26.24 122.304 39.552 191.232 39.552l10.752-0.128c13.952-0.32 26.368-8.8 31.808-21.696 50.016-119.616 32.64-286.56-43.232-415.328-65.376-110.816-166.624-180.128-285.824-195.424a33.568 33.568 0 0 0-10.4-1.664z m-56.096-209.952a35.2 35.2 0 0 0-35.168 35.2v210.048a35.2 35.2 0 1 0 70.4 0v-209.984c0-19.52-15.808-35.264-35.232-35.264z"  horiz-adv-x="1024" />

    
    <glyph glyph-name="chazhao" unicode="&#59274;" d="M928 44.8L755.2 192c51.2 64 76.8 153.6 76.8 249.6C832 665.6 659.2 851.2 441.6 851.2 224 851.2 44.8 665.6 44.8 441.6s179.2-409.6 396.8-409.6c102.4 0 198.4 44.8 268.8 108.8l172.8-147.2c6.4-6.4 12.8-6.4 19.2-6.4 6.4 0 19.2 6.4 25.6 12.8 12.8 12.8 12.8 32 0 44.8z m-486.4 51.2c-185.6 0-332.8 153.6-332.8 345.6 0 192 147.2 345.6 332.8 345.6 179.2 0 326.4-153.6 326.4-345.6 0-192-147.2-345.6-326.4-345.6z"  horiz-adv-x="1024" />

    
    <glyph glyph-name="logout-user" unicode="&#58947;" d="M982.028 579.662c-25.584 60.484-62.202 114.799-108.839 161.436-46.637 46.635-100.952 83.255-161.436 108.837-62.634 26.489-129.151 39.922-197.708 39.922s-135.074-13.433-197.71-39.924c-60.484-25.584-114.799-62.2-161.436-108.837s-83.253-100.95-108.837-161.436c-26.489-62.632-39.922-129.151-39.922-197.706 0-68.557 13.433-135.074 39.924-197.708 25.584-60.484 62.202-114.801 108.837-161.436 46.637-46.635 100.95-83.253 161.436-108.839 62.634-26.491 129.151-39.924 197.708-39.924s135.074 13.433 197.708 39.924c60.484 25.584 114.799 62.202 161.436 108.839 46.635 46.635 83.253 100.952 108.839 161.436 26.489 62.634 39.924 129.151 39.924 197.708 0 68.555-13.435 135.074-39.924 197.708zM933.802 204.644c-22.632-53.508-54.921-101.628-95.959-143.088-33.802 114.751-128.418 203.915-247.099 231.188 65.268 28.957 110.723 93.729 110.723 168.995 0 102.259-83.913 185.16-187.423 185.16s-187.421-82.901-187.421-185.16c0-75.266 45.457-140.038 110.725-168.995-118.68-27.271-213.299-116.437-247.101-231.191-41.038 41.462-73.327 89.582-95.957 143.090-23.747 56.144-35.787 115.802-35.787 177.31s12.040 121.166 35.789 177.308c22.944 54.243 55.792 102.963 97.636 144.808 41.847 41.843 90.567 74.695 144.81 97.636 56.144 23.749 115.798 35.789 177.31 35.789 61.51 0 121.164-12.040 177.31-35.789 54.243-22.942 102.961-55.792 144.806-97.634 41.845-41.847 74.699-90.565 97.64-144.81 23.749-56.144 35.789-115.798 35.789-177.31s-12.042-121.164-35.791-177.308z"  horiz-adv-x="1024" />

    
    <glyph glyph-name="renminbi" unicode="&#58883;" d="M702.7320976257324 645.5326309204102L561.3859481811522 405.066198348999h111.37484550476073v-53.13014030456543H542.9940624237062v-73.21915626525877h129.76673126220703v-53.8029670715332H542.9940624237062v-106.60866737365721h-66.75507545471191V224.9131622314453H341.7060775756836v53.803739547729485h134.53290939331052v73.21915626525877H341.7060775756836v53.13014030456543h114.79228019714357L316.50172424316406 645.5326309204102h75.26467323303224c65.40633201599123-119.4425868988037 105.1201057434082-195.1730632781982 119.210844039917-227.18988418579104h1.371917724609375c4.766178131103516 13.15990447998047 17.833385467529293 39.73617553710937 39.17844772338868 79.70563888549805l80.03162384033202 147.48424530029297h71.17286682128906z"  horiz-adv-x="1024" />

    
    <glyph glyph-name="jiebang1" unicode="&#58890;" d="M964.186488 560.11982c37.32002 37.32002 57.769346 85.887169 57.769346 139.055417 0 53.168248-20.960559 101.735397-57.769346 139.055417-37.32002 37.32002-85.887169 57.769346-139.055417 57.769346-53.168248 0-101.735397-20.960559-139.055416-57.769346L463.689234 611.243135c-18.404393-18.404393-18.404393-48.567149 0-64.92661 18.404393-18.404393 48.567149-18.404393 64.92661 0l222.386421 226.987519c18.404393 18.404393 43.966051 30.162756 72.083874 30.162756 27.60659 0 53.168248-11.758362 72.083874-30.162756 18.404393-18.404393 30.162756-43.966051 30.162756-72.083874 0-27.60659-11.758362-53.168248-30.162756-72.083874l-222.38642-226.987519c-18.404393-18.404393-18.404393-48.567149 0-64.92661 9.202197-9.202197 20.960559-13.803295 32.207688-13.803295 11.758362 0 23.005492 4.601098 32.207689 13.803295l226.987518 222.897653z m-403.362955-337.925112c-18.404393 18.404393-46.522217 18.404393-64.92661 0l-224.942587-224.942586c-39.364953-39.364953-104.291563-39.364953-146.21268 0-39.364953 39.364953-39.364953 104.291563 0 146.212681l224.942586 222.38642c18.404393 18.404393 18.404393 46.522217 0 64.92661-18.404393 18.404393-46.522217 18.404393-64.92661 0l-224.942587-224.942586C23.006259 169.537693 2.556933 119.948078 2.556933 67.802297c0-51.634548 20.449326-101.224164 57.258112-138.032951 37.32002-37.32002 87.932102-57.769346 139.055417-57.769346s99.690464 18.404393 139.055417 57.769346l224.942586 222.38642c16.359461 21.471792 16.359461 51.123315-2.044932 70.038942zM368.599868 729.337993c4.601098-20.960559 23.005492-34.763854 43.966051-34.763854 4.601098 0 7.157264 0 11.758363 2.556166 25.561658 7.157264 39.364953 32.207688 32.207688 55.724413L428.92538 859.191213c-7.157264 25.561658-32.207688 39.364953-55.724413 32.207689-25.561658-7.157264-39.364953-32.207688-32.207689-55.724414L368.599868 729.337993zM217.786089 611.243135c9.202197-9.202197 20.960559-13.803295 32.207688-13.803295 11.758362 0 23.005492 4.601098 32.207689 13.803295 18.404393 18.404393 18.404393 46.522217 0 64.92661L203.982794 754.899651c-18.404393 18.404393-46.522217 18.404393-64.92661 0-18.404393-18.404393-18.404393-46.522217 0-64.926611l78.729905-78.729905z m-180.465302-148.257613L143.657282 435.378932c4.601098 0 7.157264-2.556166 11.758363-2.556166 20.960559 0 39.364953 13.803295 43.96605 34.763854 7.157264 25.561658-7.157264 51.123315-32.207688 57.769346L60.326279 552.962556c-25.561658 7.157264-51.123315-7.157264-57.769346-32.207688-4.601098-27.60659 9.202197-53.168248 34.763854-57.769346z m618.592112-421.767349c-7.157264 25.561658-32.207688 39.364953-55.724414 32.207688-25.561658-7.157264-39.364953-32.207688-32.207688-55.724413l27.60659-106.336495c4.601098-20.960559 23.005492-34.763854 43.966051-34.763855 4.601098 0 7.157264 0 11.758362 2.556166 25.561658 7.157264 39.364953 32.207688 32.207689 55.724413l-27.60659 106.336496z m150.813779 118.094857c-18.404393 18.404393-46.522217 18.404393-64.92661 0-18.404393-18.404393-18.404393-46.522217 0-64.92661l78.729905-78.729905c9.202197-9.202197 20.960559-13.803295 32.207689-13.803295 11.758362 0 23.005492 4.601098 32.207688 13.803295 18.404393 18.404393 18.404393 46.522217 0 64.92661L806.726678 159.31303z m180.465302 148.257614l-106.847728 27.60659c-25.561658 7.157264-51.123315-7.157264-57.769346-32.207688-7.157264-25.561658 7.157264-51.123315 32.207688-57.769346l106.847729-27.60659c4.601098 0 7.157264-2.556166 11.758362-2.556166 20.960559 0 39.364953 13.803295 43.966051 34.763854 9.202197 25.561658-4.601098 51.123315-30.162756 57.769346z m0 0"  horiz-adv-x="1024" />

    
    <glyph glyph-name="genghuanmoban" unicode="&#59059;" d="M416 12.8c-57.6 0-102.4 19.2-128 44.8-38.4 38.4-44.8 96-51.2 128h51.2c19.2 0 25.6 12.8 12.8 25.6l-19.2 32-38.4 57.6-19.2 32c-6.4 6.4-12.8 6.4-19.2 6.4s-12.8 0-12.8-6.4l-25.6-32c-12.8-12.8-25.6-38.4-38.4-51.2l-19.2-32c-12.8-12.8-6.4-25.6 12.8-25.6h51.2c0-38.4 12.8-115.2 70.4-172.8 44.8-44.8 102.4-70.4 179.2-70.4 19.2 0 32 12.8 32 32s-19.2 32-38.4 32zM390.4 819.2H128c-32 0-64-25.6-64-64v-262.4c0-38.4 32-64 64-64h262.4c32 0 64 25.6 64 64V755.2c0 38.4-32 64-64 64z m0-320H128v256h262.4v-256zM896 396.8H569.6c-32 0-64-32-64-64v-326.4c0-32 32-64 64-64H896c32 0 64 32 64 64V332.8c0 38.4-32 64-64 64z m0-384H569.6v320H896v-320zM595.2 755.2c57.6 0 102.4-19.2 128-44.8 32-38.4 44.8-83.2 51.2-121.6h-44.8c-19.2 0-25.6-12.8-12.8-25.6l19.2-32c12.8-12.8 25.6-38.4 38.4-51.2l12.8-32c6.4-6.4 12.8-12.8 19.2-12.8s12.8 6.4 19.2 12.8l19.2 32c12.8 12.8 25.6 38.4 38.4 51.2l19.2 32c12.8 12.8 6.4 25.6-12.8 25.6h-51.2c-6.4 38.4-19.2 108.8-64 160-44.8 44.8-102.4 70.4-179.2 70.4-19.2 0-32-12.8-32-32s12.8-32 32-32z"  horiz-adv-x="1024" />

    
    <glyph glyph-name="tanhao" unicode="&#58974;" d="M513.037604-122.811979c-68.366584 0-134.773249 13.373565-197.260076 39.890115-60.411619 25.478946-114.597613 62.02567-161.059221 108.602567S71.594686 126.443594 46.11574 186.739923c-26.51655 62.486827-39.890115 128.893492-39.890115 197.260077S19.599189 518.773249 46.00045 581.260077c25.478946 60.411619 62.02567 114.597613 108.602567 161.05922S255.365909 825.442918 315.662238 850.921864c62.602117 26.51655 129.008782 39.890115 197.375366 39.890115S647.810853 877.438415 710.297681 851.037154c60.411619-25.478946 114.597613-62.02567 161.059221-108.602567 46.461608-46.576897 83.123621-100.762891 108.602567-161.059221 26.401261-62.486827 39.890115-128.893492 39.890114-197.260077s-13.373565-134.888539-39.774825-197.375366c-25.478946-60.411619-62.02567-114.597613-108.602567-161.05922-46.576897-46.461608-100.762891-83.123621-161.059221-108.602567-62.602117-26.51655-129.008782-39.890115-197.375366-39.890115z m0 955.979284c-247.641522 0-449.167305-201.525782-449.167305-449.167305S265.396082-65.167305 513.037604-65.167305s449.167305 201.525782 449.167305 449.167305S760.679126 833.167305 513.037604 833.167305zM473.0322 647.090295h80.010808v-369.387075h-80.010808zM473.0322 208.068453h80.010808v-87.158748h-80.010808z"  horiz-adv-x="1026" />

    
    <glyph glyph-name="icon02" unicode="&#58880;" d="M509.86675497844936-134.3541433685332c-285.50878597878517 0-516.9598013743407 231.49765760948148-516.9598013743407 517.0432654348641S224.3579689996643 899.7152038001777 509.86675497844936 899.7152038001777c285.5112404233481 0 516.9622558189036-231.4804739084642 516.9622558189036-517.0260817338469S795.3779954017974-134.3541433685332 509.86675497844936-134.3541433685332zM509.86675497844936 835.0893975425581c-249.82294849611847 0-452.3389053003852-202.54541402263706-452.3389053003852-452.40027547622714S260.04380518779266-69.71360914899753 509.86675497844936-69.71360914899753s452.3389053003852 202.54786846719998 452.3389053003852 452.4027312153284S759.689703474568 835.0893975425581 509.86675497844936 835.0893975425581zM703.7269861666764 350.36885495656304L542.1796574599902 350.36885495656304l0-161.57187833046913c0-17.836781335387652-14.466302073362964-32.30799359241482-32.310448036977775-32.30799359241482-17.844145963614814 0-32.30799359241482 14.47121225702716-32.30799359241482 32.30799359241482l0 161.57187833046913-161.55223889035062 0c-17.844145963614814 0-32.310448036977775 14.468756517925923-32.310448036977775 32.3202671097679 0 17.839235779950616 14.468756517925923 32.30799359241482 32.310448036977775 32.30799359241482l161.55223889035062 0 0 161.57924295869628c0 17.836781335387652 14.466302073362964 32.30062896418766 32.30799359241482 32.30062896418766 17.84660040817778 0 32.310448036977775-14.461391889698765 32.310448036977775-32.30062896418766l0-161.57924295869628 161.54733000122468 0c17.84660040817778 0 32.310448036977775-14.468756517925923 32.310448036977775-32.30799359241482C736.0374342036542 364.8376114744889 721.5735865748544 350.36885495656304 703.7269861666764 350.36885495656304z"  horiz-adv-x="1024" />

    
    <glyph glyph-name="gerenjianli" unicode="&#59011;" d="M512 532.3c-97.6 0-176.6-79.1-176.6-176.6h353.2c0 97.6-79 176.6-176.6 176.6zM824.6 854.7H199.4c-48.3 0-87.6-39.3-87.6-87.6v-766.3c0-48.3 39.3-87.6 87.6-87.6h494.1c7.3 0 14.2 2.9 19.2 8.1l191.5 194.1c5 5 7.8 11.9 7.8 19V767.2c0.1 48.2-39.1 87.5-87.4 87.5zM713.7-9.200000000000045V73c0 22.4 18.3 40.6 40.7 40.6h80.8L713.7-9.200000000000045z m149.6 167.3H757.7c-49 0-88.8-39.8-88.8-88.8V-39H194.7c-18.7 0-34 15.2-34 34V773c0 18.7 15.2 34 34 34h634.6c18.7 0 34-15.2 34-34v-614.9zM698.1 249.39999999999998H325.9c-13.2 0-24.2 10.8-24.2 24.2 0 13.2 10.8 24.2 24.2 24.2H698c13.4 0 24.2-10.9 24.2-24.2 0.1-13.2-10.8-24.2-24.1-24.2zM487.8 133.89999999999998H325.9c-13.2 0-24.2 10.9-24.2 24.2 0 13.2 10.8 24.2 24.2 24.2h161.9c13.2 0 24.2-10.8 24.2-24.2 0-13.3-10.8-24.2-24.2-24.2zM587.2 549.4c16.6 18.2 26.8 42.4 26.8 69 0 56.3-45.6 102-102 102s-102-45.6-102-102c0-26.6 10.2-50.8 26.8-69-68.9-29.2-117.2-97.6-117.2-177.1 0-13.4 10.8-24.2 24.2-24.2 13.4 0 24.2 10.8 24.2 24.2 0 79.6 64.4 144 144 144s144-64.4 144-144c0-13.4 10.8-24.2 24.2-24.2 13.4 0 24.2 10.8 24.2 24.2 0 79.5-48.4 147.8-117.2 177.1zM512 671.8c29.6 0 53.6-24 53.6-53.6s-24-53.6-53.6-53.6-53.6 24-53.6 53.6 24 53.6 53.6 53.6z"  horiz-adv-x="1024" />

    
    <glyph glyph-name="jiedongzhiquchaxun" unicode="&#59087;" d="M179.2 704v-384H832V704H179.2z m409.6-249.6c6.4 0 19.2-6.4 19.2-19.2 0-6.4-6.4-19.2-19.2-19.2h-57.6v-25.6c0-6.4-6.4-19.2-19.2-19.2-6.4 0-19.2 6.4-19.2 19.2v32h-51.2c-6.4 0-19.2 6.4-19.2 19.2 0 6.4 6.4 19.2 19.2 19.2h51.2v32h-51.2c-6.4 0-19.2 6.4-19.2 19.2 0 12.8 6.4 19.2 19.2 19.2h32l-44.8 51.2c-6.4 6.4-6.4 19.2 0 25.6 6.4 6.4 19.2 6.4 25.6 0l57.6-51.2s0-6.4 6.4-6.4l57.6 64c6.4 6.4 19.2 6.4 25.6 0 6.4-6.4 6.4-25.6 0-32l-57.6-51.2h44.8c6.4 0 19.2-6.4 19.2-19.2 0-6.4-6.4-19.2-19.2-19.2h-64v-32l64-6.4zM844.8 710.4H185.6c-6.4 0-19.2-6.4-19.2-12.8v-364.8c0-6.4 6.4-19.2 19.2-19.2 6.4 0 19.2 6.4 19.2 19.2V678.4h614.4v-345.6c0-6.4 6.4-19.2 19.2-19.2s19.2 6.4 19.2 19.2V697.6c0 6.4-6.4 12.8-12.8 12.8zM364.8 179.2c-32 0-32 38.4-32 38.4V294.4c0 6.4-6.4 19.2-19.2 19.2-6.4 0-19.2-6.4-19.2-19.2v-83.2c0-32 19.2-76.8 70.4-76.8 6.4 0 32-6.4 44.8-19.2 6.4-6.4 6.4-12.8 6.4-19.2v-32c0-6.4 6.4-19.2 19.2-19.2 6.4 0 19.2 6.4 19.2 25.6v32c0 19.2-6.4 38.4-19.2 51.2-19.2 12.8-44.8 25.6-70.4 25.6zM736 524.8C640 524.8 601.6 448 595.2 416v-121.6c0-6.4 6.4-19.2 19.2-19.2 6.4 0 19.2 6.4 19.2 19.2V403.2c6.4 12.8 25.6 64 89.6 76.8v-268.8c0-12.8 0-19.2-6.4-19.2H704h-6.4c-12.8-6.4-57.6-25.6-57.6-108.8 0-6.4 6.4-19.2 19.2-19.2 6.4 0 12.8 0 12.8 6.4v12.8c0 64 32 70.4 32 70.4 12.8 0 19.2 6.4 32 12.8 12.8 12.8 12.8 38.4 12.8 51.2V505.6c6.4 6.4-6.4 19.2-12.8 19.2z"  horiz-adv-x="1024" />

    
    <glyph glyph-name="rizhi" unicode="&#59090;" d="M665.6 499.2h-256c-12.8 0-25.6 6.4-25.6 19.2s6.4 19.2 19.2 19.2h249.6c12.8 0 19.2-6.4 19.2-19.2s0-19.2-6.4-19.2zM665.6 364.8h-256c-12.8 0-25.6 12.8-25.6 25.6s6.4 19.2 19.2 19.2h249.6c12.8 0 19.2-6.4 19.2-19.2 12.8-12.8 0-25.6-6.4-25.6zM665.6 230.4h-256c-12.8 0-19.2 6.4-19.2 19.2s6.4 19.2 19.2 19.2h249.6c12.8 0 19.2-6.4 19.2-19.2s-6.4-19.2-12.8-19.2zM780.8 44.8H326.4c-64 0-115.2 44.8-115.2 108.8v32c0 12.8 12.8 19.2 25.6 19.2s25.6-6.4 25.6-19.2v-32c0-32 32-64 70.4-64h403.2c38.4 0 70.4 32 70.4 64V300.8c0 12.8 12.8 19.2 25.6 19.2s25.6-6.4 25.6-19.2v-147.2c-12.8-64-12.8-108.8-76.8-108.8z m-550.4 256c-12.8 0-25.6 6.4-25.6 19.2V454.4c0 12.8 12.8 19.2 25.6 19.2 12.8 6.4 25.6-6.4 25.6-19.2V320c0-6.4-12.8-19.2-25.6-19.2z m595.2 153.6c-12.8 0-25.6 6.4-25.6 19.2V620.8c0 32-32 64-70.4 64H326.4c-38.4 0-70.4-25.6-70.4-64v-32c0-12.8-12.8-19.2-25.6-19.2s-25.6 6.4-25.6 19.2v32c0 57.6 51.2 108.8 121.6 108.8h403.2c64 0 115.2-44.8 115.2-108.8v-147.2c0-6.4-6.4-19.2-19.2-19.2zM313.6 499.2H211.2c-12.8 0-25.6 6.4-25.6 19.2s12.8 19.2 25.6 19.2h102.4c12.8 0 25.6-6.4 25.6-19.2s-6.4-19.2-25.6-19.2zM313.6 230.4H211.2c-12.8 0-25.6 6.4-25.6 19.2s12.8 19.2 25.6 19.2h102.4c12.8 0 25.6-6.4 25.6-19.2s-6.4-19.2-25.6-19.2zM812.8 300.8c-51.2 0-89.6 38.4-89.6 89.6s38.4 89.6 89.6 89.6c51.2 0 89.6-44.8 89.6-89.6 0-51.2-38.4-89.6-89.6-89.6z m0 128c-25.6 0-44.8-19.2-44.8-44.8s19.2-44.8 44.8-44.8c19.2 0 44.8 19.2 44.8 44.8 0 25.6-19.2 44.8-44.8 44.8z"  horiz-adv-x="1024" />

    
    <glyph glyph-name="shouqushenqingdengji" unicode="&#59092;" d="M787.2 108.8c0-19.2-51.2-44.8-83.2-44.8H326.4c-19.2 0-83.2 25.6-83.2 51.2l-32 185.6c0 19.2 0 38.4 25.6 38.4h563.2c19.2 0 25.6-19.2 25.6-38.4l-38.4-192zM358.4 582.4h313.6s6.4 96-32 140.8c-25.6 32-236.8 6.4-236.8 6.4s-64-57.6-44.8-147.2zM480 224L339.2 339.2l-32-32 172.8-160 243.2 294.4-38.4 25.6-204.8-243.2zM691.2 684.8c-12.8 38.4-38.4 64-83.2 64H422.4c-44.8 0-64-32-83.2-64C256 678.4 192 614.4 192 524.8v-313.6c0-96 70.4-166.4 160-166.4h320c89.6 0 160 70.4 160 166.4V524.8c6.4 89.6-57.6 153.6-140.8 160z m-275.2 32h192c38.4 0 44.8-83.2 44.8-121.6H371.2c0 38.4 12.8 121.6 44.8 121.6z m384-512c0-64-57.6-128-121.6-128h-320c-64 0-121.6 57.6-121.6 128V518.4c0 64 51.2 115.2 102.4 121.6-6.4-19.2-6.4-38.4-6.4-44.8h-25.6v-38.4h422.4v38.4H704c0 6.4 0 25.6-6.4 44.8 51.2-6.4 102.4-64 102.4-121.6v-313.6z"  horiz-adv-x="1024" />

    
    <glyph glyph-name="chaobiaopng" unicode="&#58918;" d="M927.867818 668.743522H799.242959V802.367255A93.728877 93.728877 0 0 1 705.514082 896H96.132182A93.728877 93.728877 0 0 1 2.499437 802.367255v-609.3819a93.728877 93.728877 0 0 1 93.632745-93.632745h128.624859v-133.623733a93.728877 93.728877 0 0 1 93.632745-93.632745h609.478032a93.728877 93.728877 0 0 1 93.632745 93.536613v609.478032a93.728877 93.728877 0 0 1-93.632745 93.632745zM96.132182 179.238453a13.939166 13.939166 0 0 0-13.746902 13.746902V802.367255a13.939166 13.939166 0 0 0 13.746902 13.746902h609.3819a13.939166 13.939166 0 0 0 13.746902-13.746902v-133.623733H318.485918a93.728877 93.728877 0 0 1-93.632745-93.632745v-395.872324z m845.482538-213.605708a13.939166 13.939166 0 0 0-13.746902-13.746902H318.485918a13.939166 13.939166 0 0 0-13.746902 13.746902v609.478032A13.939166 13.939166 0 0 0 318.485918 588.377018h609.3819a13.939166 13.939166 0 0 0 13.746902-13.746902zM713.300789 546.367255l-312.429591-299.740143h171.019151L532.187758 8.411566l306.950056 308.199775L665.811491 319.014645l47.489298 227.35261z"  horiz-adv-x="1024" />

    
    <glyph glyph-name="shebeiguanli4" unicode="&#58902;" d="M800 768h-704C42.666667 768 0 725.333333 0 672v-704C0-85.333333 42.666667-128 96-128h704c53.333333 0 96 42.666667 96 96v704C896 725.333333 853.333333 768 800 768zM832-32c0-17.066667-14.933333-32-32-32h-704c-17.066667 0-32 14.933333-32 32V448h768v-480zM832 512H64v160C64 689.066667 78.933333 704 96 704h704c17.066667 0 32-14.933333 32-32V512z m-160 64h64v64h-64v-64zM576 640H160c-17.066667 0-32-14.933333-32-32S142.933333 576 160 576H576c17.066667 0 32 14.933333 32 32S593.066667 640 576 640zM928 896h-704C170.666667 896 128 853.333333 128 800h64c0 17.066667 14.933333 32 32 32h704c17.066667 0 32-14.933333 32-32v-704c0-17.066667-14.933333-32-32-32v-64c53.333333 0 96 42.666667 96 96v704C1024 853.333333 981.333333 896 928 896z"  horiz-adv-x="1024" />

    
    <glyph glyph-name="fangyuan3" unicode="&#58897;" d="M389.12 609.28h-81.92v-81.92h81.92v81.92zM512 609.28h-81.92v-81.92h81.92v81.92zM389.12 486.4h-81.92v-81.92h81.92v81.92zM512 486.4h-81.92v-81.92h81.92v81.92zM634.88 711.68v-634.88H204.8V711.68h430.08m20.48 61.44H184.32c-22.528 0-40.96-18.432-40.96-40.96v-675.84c0-22.528 18.432-40.96 40.96-40.96h512V732.16c0 22.528-18.432 40.96-40.96 40.96zM860.16 486.4v-409.6h-163.84V486.4h163.84m20.48 61.44H675.84c-22.528 0-40.96-18.432-40.96-40.96v-450.56c0-22.528 18.432-40.96 40.96-40.96h204.8c22.528 0 40.96 18.432 40.96 40.96V506.88c0 22.528-18.432 40.96-40.96 40.96z"  horiz-adv-x="1024" />

    
    <glyph glyph-name="liushuizhangshoufukuanren" unicode="&#58965;" d="M464.066994 135.087948H247.676115A247.869707 247.869707 0 0 0 0.014877 382.540717V645.837134A247.869707 247.869707 0 0 0 247.676115 894.123779h308.117264A247.661238 247.661238 0 0 0 803.246147 645.837134v-13.34202a31.270358 31.270358 0 1 0-62.540716 0V645.837134a185.120521 185.120521 0 0 1-184.912052 184.912052H247.676115A185.120521 185.120521 0 0 1 62.555594 645.837134v-263.296417a185.120521 185.120521 0 0 1 185.120521-184.912053h216.390879a31.270358 31.270358 0 0 0 0-62.540716zM401.734747 544.104235a30.228013 30.228013 0 0 0-22.09772 9.172638L236.418786 695.661238a31.061889 31.061889 0 0 0 0 44.19544 31.478827 31.478827 0 0 0 44.19544 0l120.286645-120.286645 121.120521 120.286645a31.270358 31.270358 0 0 0 44.195439-44.19544L424.040936 553.276873a30.644951 30.644951 0 0 0-22.306189-9.172638zM567.259177 532.221498H236.418786a31.270358 31.270358 0 0 0 0 62.540717h330.840391a31.270358 31.270358 0 0 0 0-62.540717zM518.06048 406.514658H236.418786a31.270358 31.270358 0 0 0 0 62.540717h281.641694a31.270358 31.270358 0 0 0 0-62.540717zM401.734747 280.18241a31.270358 31.270358 0 0 0-31.270359 31.270359V553.485342a31.270358 31.270358 0 0 0 62.540717 0V312.286645a31.270358 31.270358 0 0 0-31.270358-32.104235zM759.467646 226.188925a162.188925 162.188925 0 1 0 162.188925 162.188925 162.397394 162.397394 0 0 0-162.188925-162.188925z m0 261.628665a99.648208 99.648208 0 1 1 99.648208-99.43974 99.648208 99.648208 0 0 1-99.648208 99.43974zM759.467646-128c-115.074919 0-272.677524 0-272.677525 132.169381C486.581652 116.325733 609.161457 208.052117 759.467646 208.052117s272.677524-91.100977 272.677524-203.257329c0-132.794788-157.602606-132.794788-272.677524-132.794788z m0 272.885993C645.643542 145.511401 549.122369 80.469055 549.122369 4.169381c0-53.368078 49.198697-69.628664 210.136808-69.628664s210.136808 16.260586 210.136808 69.628664c0.208469 76.299674-95.895765 141.34202-209.928339 141.34202z"  horiz-adv-x="1034" />

    


  </font>
</defs>
</svg>
